<svg xmlns="http://www.w3.org/2000/svg" xmlns:xlink="http://www.w3.org/1999/xlink" xmlns:lucid="lucid" width="2078" height="1607"><g transform="translate(-4074 -46)" lucid:page-tab-id="0_0"><path d="M4662 160c15.46 0 28 13.43 28 30s-12.54 30-28 30h-84c-15.46 0-28-13.43-28-30s12.54-30 28-30z" stroke="#5e5e5e" stroke-width="3" fill="#fff"/><use xlink:href="#a" transform="matrix(1,0,0,1,4555,165) translate(41.574074074074076 30.27777777777778)"/><path d="M4480 411.33c0-3.3 2.7-6 6-6h268c3.3 0 6 2.7 6 6V530c0 3.3-2.7 6-6 6h-268c-3.3 0-6-2.7-6-6z" stroke="#5e5e5e" stroke-width="3" fill="#fff"/><use xlink:href="#b" transform="matrix(1,0,0,1,4492,417.3333333333333) translate(4.9135802469135825 17.77777777777778)"/><use xlink:href="#c" transform="matrix(1,0,0,1,4492,417.3333333333333) translate(103.49382716049382 17.77777777777778)"/><use xlink:href="#d" transform="matrix(1,0,0,1,4492,417.3333333333333) translate(140.53086419753083 17.77777777777778)"/><use xlink:href="#e" transform="matrix(1,0,0,1,4492,417.3333333333333) translate(10.222222222222229 44.44444444444444)"/><use xlink:href="#c" transform="matrix(1,0,0,1,4492,417.3333333333333) translate(34.91358024691358 44.44444444444444)"/><use xlink:href="#f" transform="matrix(1,0,0,1,4492,417.3333333333333) translate(71.95061728395062 44.44444444444444)"/><use xlink:href="#g" transform="matrix(1,0,0,1,4492,417.3333333333333) translate(154.48148148148147 44.44444444444444)"/><use xlink:href="#h" transform="matrix(1,0,0,1,4492,417.3333333333333) translate(16.364197530864203 71.11111111111111)"/><use xlink:href="#i" transform="matrix(1,0,0,1,4492,417.3333333333333) translate(83.03086419753086 71.11111111111111)"/><use xlink:href="#c" transform="matrix(1,0,0,1,4492,417.3333333333333) translate(113.89506172839506 71.11111111111111)"/><use xlink:href="#j" transform="matrix(1,0,0,1,4492,417.3333333333333) translate(150.9320987654321 71.11111111111111)"/><use xlink:href="#k" transform="matrix(1,0,0,1,4492,417.3333333333333) translate(79.26543209876543 97.77777777777777)"/><path d="M4480 266c0-3.3 2.7-6 6-6h268c3.3 0 6 2.7 6 6v88c0 3.3-2.7 6-6 6h-268c-3.3 0-6-2.7-6-6z" stroke="#5e5e5e" stroke-width="3" fill="#fff"/><use xlink:href="#l" transform="matrix(1,0,0,1,4492,272) translate(11.364197530864203 29.80902777777778)"/><use xlink:href="#c" transform="matrix(1,0,0,1,4492,272) translate(97.53703703703704 29.80902777777778)"/><use xlink:href="#m" transform="matrix(1,0,0,1,4492,272) translate(134.57407407407408 29.80902777777778)"/><use xlink:href="#n" transform="matrix(1,0,0,1,4492,272) translate(207.59876543209876 29.80902777777778)"/><use xlink:href="#o" transform="matrix(1,0,0,1,4492,272) translate(104.60493827160494 56.47569444444445)"/><path d="M4480 728.5c0-3.3 2.7-6 6-6h268c3.3 0 6 2.7 6 6v88c0 3.3-2.7 6-6 6h-268c-3.3 0-6-2.7-6-6z" stroke="#5e5e5e" stroke-width="3" fill="#fff"/><use xlink:href="#p" transform="matrix(1,0,0,1,4492,734.5) translate(8.277777777777786 29.80902777777778)"/><use xlink:href="#m" transform="matrix(1,0,0,1,4492,734.5) translate(61.302469135802475 29.80902777777778)"/><use xlink:href="#q" transform="matrix(1,0,0,1,4492,734.5) translate(134.32716049382714 29.80902777777778)"/><use xlink:href="#r" transform="matrix(1,0,0,1,4492,734.5) translate(177.537037037037 29.80902777777778)"/><use xlink:href="#s" transform="matrix(1,0,0,1,4492,734.5) translate(230.5 29.80902777777778)"/><use xlink:href="#t" transform="matrix(1,0,0,1,4492,734.5) translate(56.51851851851853 56.47569444444445)"/><use xlink:href="#u" transform="matrix(1,0,0,1,4492,734.5) translate(143.98765432098764 56.47569444444445)"/><path d="M4620 222.5V240" stroke="#5e5e5e" stroke-width="2" fill="none"/><path d="M4621 222.53h-2v-1.03h2z" fill="#5e5e5e"/><path d="M4620 255.26l-4.64-14.26h9.28z" stroke="#5e5e5e" stroke-width="2" fill="#5e5e5e"/><path d="M4620 362.5v22.83" stroke="#5e5e5e" stroke-width="2" fill="none"/><path d="M4621 362.53h-2v-1.03h2z" fill="#5e5e5e"/><path d="M4620 400.6l-4.64-14.27h9.28z" stroke="#5e5e5e" stroke-width="2" fill="#5e5e5e"/><path d="M5042.07 194.42c0 8.28-6.72 15-15 15-8.3 0-15-6.72-15-15 0-8.3 6.7-15 15-15 8.28 0 15 6.7 15 15z" stroke="#5e5e5e" stroke-width="3"/><path d="M4907.07 125.42c0-3.32 2.68-6 6-6h228c3.3 0 6 2.68 6 6v48c0 3.3-2.7 6-6 6h-228c-3.32 0-6-2.7-6-6z" stroke="#000" stroke-opacity="0" stroke-width="3" fill="#fff" fill-opacity="0"/><use xlink:href="#v" transform="matrix(1,0,0,1,4912.067547472319,124.41666666666657) translate(47.22222222222223 30.27777777777778)"/><use xlink:href="#w" transform="matrix(1,0,0,1,4912.067547472319,124.41666666666657) translate(100.18518518518519 30.27777777777778)"/><path d="M4887.07 396.08c0-3.3 2.68-6 6-6h268c3.3 0 6 2.7 6 6v92c0 3.32-2.7 6-6 6h-268c-3.32 0-6-2.68-6-6z" stroke="#5e5e5e" stroke-width="3" fill="#fff"/><use xlink:href="#x" transform="matrix(1,0,0,1,4899.067547472319,402.08333333333326) translate(5.870370370370367 17.77777777777778)"/><use xlink:href="#c" transform="matrix(1,0,0,1,4899.067547472319,402.08333333333326) translate(51.54938271604938 17.77777777777778)"/><use xlink:href="#y" transform="matrix(1,0,0,1,4899.067547472319,402.08333333333326) translate(88.58641975308642 17.77777777777778)"/><use xlink:href="#z" transform="matrix(1,0,0,1,4899.067547472319,402.08333333333326) translate(178.58641975308643 17.77777777777778)"/><use xlink:href="#A" transform="matrix(1,0,0,1,4899.067547472319,402.08333333333326) translate(2.382716049382708 44.44444444444444)"/><use xlink:href="#c" transform="matrix(1,0,0,1,4899.067547472319,402.08333333333326) translate(44.29629629629629 44.44444444444444)"/><use xlink:href="#B" transform="matrix(1,0,0,1,4899.067547472319,402.08333333333326) translate(81.33333333333333 44.44444444444444)"/><use xlink:href="#C" transform="matrix(1,0,0,1,4899.067547472319,402.08333333333326) translate(135.59259259259258 44.44444444444444)"/><use xlink:href="#D" transform="matrix(1,0,0,1,4899.067547472319,402.08333333333326) translate(198.06172839506172 44.44444444444444)"/><use xlink:href="#E" transform="matrix(1,0,0,1,4899.067547472319,402.08333333333326) translate(222.7530864197531 44.44444444444444)"/><use xlink:href="#F" transform="matrix(1,0,0,1,4899.067547472319,402.08333333333326) translate(94.11111111111111 71.11111111111111)"/><path d="M4887.07 255.75c0-3.3 2.68-6 6-6h268c3.3 0 6 2.7 6 6v88c0 3.3-2.7 6-6 6h-268c-3.32 0-6-2.7-6-6z" stroke="#5e5e5e" stroke-width="3" fill="#fff"/><use xlink:href="#G" transform="matrix(1,0,0,1,4899.067547472319,261.74999999999994) translate(17.59876543209876 29.80902777777778)"/><use xlink:href="#c" transform="matrix(1,0,0,1,4899.067547472319,261.74999999999994) translate(122.41358024691357 29.80902777777778)"/><use xlink:href="#H" transform="matrix(1,0,0,1,4899.067547472319,261.74999999999994) translate(159.4506172839506 29.80902777777778)"/><use xlink:href="#I" transform="matrix(1,0,0,1,4899.067547472319,261.74999999999994) translate(64.51234567901236 56.47569444444445)"/><use xlink:href="#F" transform="matrix(1,0,0,1,4899.067547472319,261.74999999999994) translate(123.70987654320987 56.47569444444445)"/><path d="M5027.07 211.93v17.82" stroke="#5e5e5e" stroke-width="2" fill="none"/><path d="M5027.07 210.93l1-.13v1.16h-2v-1.16z" fill="#5e5e5e"/><path d="M5027.07 245l-4.64-14.25h9.27z" stroke="#5e5e5e" stroke-width="2" fill="#5e5e5e"/><path d="M5027.07 352.25v17.83" stroke="#5e5e5e" stroke-width="2" fill="none"/><path d="M5028.07 352.28h-2v-1.03h2z" fill="#5e5e5e"/><path d="M5027.07 385.35l-4.64-14.27h9.27z" stroke="#5e5e5e" stroke-width="2" fill="#5e5e5e"/><path d="M4887.07 540.42c0-3.32 2.68-6 6-6h268c3.3 0 6 2.68 6 6v88c0 3.3-2.7 6-6 6h-268c-3.32 0-6-2.7-6-6z" stroke="#5e5e5e" stroke-width="3" fill="#fff"/><use xlink:href="#b" transform="matrix(1,0,0,1,4899.067547472319,546.4166666666667) translate(4.080246913580254 29.80902777777778)"/><use xlink:href="#c" transform="matrix(1,0,0,1,4899.067547472319,546.4166666666667) translate(102.6604938271605 29.80902777777778)"/><use xlink:href="#J" transform="matrix(1,0,0,1,4899.067547472319,546.4166666666667) translate(139.69753086419752 29.80902777777778)"/><use xlink:href="#K" transform="matrix(1,0,0,1,4899.067547472319,546.4166666666667) translate(20.191358024691354 56.47569444444445)"/><use xlink:href="#e" transform="matrix(1,0,0,1,4899.067547472319,546.4166666666667) translate(68.27777777777777 56.47569444444445)"/><use xlink:href="#L" transform="matrix(1,0,0,1,4899.067547472319,546.4166666666667) translate(92.96913580246914 56.47569444444445)"/><use xlink:href="#M" transform="matrix(1,0,0,1,4899.067547472319,546.4166666666667) translate(138.5246913580247 56.47569444444445)"/><use xlink:href="#N" transform="matrix(1,0,0,1,4899.067547472319,546.4166666666667) translate(197.6604938271605 56.47569444444445)"/><path d="M4887.07 680.75c0-3.3 2.68-6 6-6h268c3.3 0 6 2.7 6 6v92c0 3.3-2.7 6-6 6h-268c-3.32 0-6-2.7-6-6z" stroke="#5e5e5e" stroke-width="3" fill="#fff"/><use xlink:href="#O" transform="matrix(1,0,0,1,4899.067547472319,686.75) translate(8.925925925925924 17.77777777777778)"/><use xlink:href="#c" transform="matrix(1,0,0,1,4899.067547472319,686.75) translate(65.71604938271605 17.77777777777778)"/><use xlink:href="#P" transform="matrix(1,0,0,1,4899.067547472319,686.75) translate(102.75308641975309 17.77777777777778)"/><use xlink:href="#Q" transform="matrix(1,0,0,1,4899.067547472319,686.75) translate(170.65432098765433 17.77777777777778)"/><use xlink:href="#s" transform="matrix(1,0,0,1,4899.067547472319,686.75) translate(229.85185185185185 17.77777777777778)"/><use xlink:href="#c" transform="matrix(1,0,0,1,4899.067547472319,686.75) translate(16.51851851851852 44.44444444444444)"/><use xlink:href="#P" transform="matrix(1,0,0,1,4899.067547472319,686.75) translate(53.55555555555556 44.44444444444444)"/><use xlink:href="#C" transform="matrix(1,0,0,1,4899.067547472319,686.75) translate(121.45679012345678 44.44444444444444)"/><use xlink:href="#D" transform="matrix(1,0,0,1,4899.067547472319,686.75) translate(183.92592592592592 44.44444444444444)"/><use xlink:href="#E" transform="matrix(1,0,0,1,4899.067547472319,686.75) translate(208.61728395061726 44.44444444444444)"/><use xlink:href="#I" transform="matrix(1,0,0,1,4899.067547472319,686.75) translate(64.51234567901236 71.11111111111111)"/><use xlink:href="#F" transform="matrix(1,0,0,1,4899.067547472319,686.75) translate(123.70987654320987 71.11111111111111)"/><path d="M5027.07 496.58v17.83" stroke="#5e5e5e" stroke-width="2" fill="none"/><path d="M5028.07 496.6h-2v-1.02h2z" fill="#5e5e5e"/><path d="M5027.07 529.68l-4.64-14.27h9.27z" stroke="#5e5e5e" stroke-width="2" fill="#5e5e5e"/><path d="M5027.07 636.92v17.83" stroke="#5e5e5e" stroke-width="2" fill="none"/><path d="M5028.07 636.94h-2v-1.02h2z" fill="#5e5e5e"/><path d="M5027.07 670l-4.64-14.25h9.27z" stroke="#5e5e5e" stroke-width="2" fill="#5e5e5e"/><path d="M5042.07 826.92c0 8.28-6.72 15-15 15-8.3 0-15-6.72-15-15 0-8.3 6.7-15 15-15 8.28 0 15 6.7 15 15z" stroke="#5e5e5e" stroke-width="3"/><path d="M5027.07 781.25v10.65" stroke="#5e5e5e" stroke-width="2" fill="none"/><path d="M5028.07 781.28h-2v-1.03h2z" fill="#5e5e5e"/><path d="M5027.07 807.17l-4.64-14.27h9.27z" stroke="#5e5e5e" stroke-width="2" fill="#5e5e5e"/><path d="M5455 231.33c0 8.3-6.72 15-15 15-8.28 0-15-6.7-15-15 0-8.28 6.72-15 15-15 8.28 0 15 6.72 15 15z" stroke="#5e5e5e" stroke-width="3"/><path d="M5320 142.33c0-3.3 2.7-6 6-6h228c3.3 0 6 2.7 6 6v51.34c0 3.3-2.7 6-6 6h-228c-3.3 0-6-2.7-6-6z" stroke="#000" stroke-opacity="0" stroke-width="3" fill="#fff" fill-opacity="0"/><use xlink:href="#R" transform="matrix(1,0,0,1,5325,141.33333333333326) translate(25.58641975308643 17.77777777777778)"/><use xlink:href="#S" transform="matrix(1,0,0,1,5325,141.33333333333326) translate(78.5493827160494 17.77777777777778)"/><use xlink:href="#T" transform="matrix(1,0,0,1,5325,141.33333333333326) translate(140.21604938271605 17.77777777777778)"/><use xlink:href="#U" transform="matrix(1,0,0,1,5325,141.33333333333326) translate(29.907407407407405 44.44444444444444)"/><use xlink:href="#w" transform="matrix(1,0,0,1,5325,141.33333333333326) translate(117.5 44.44444444444444)"/><path d="M5300 292.67c0-3.32 2.7-6 6-6h268c3.3 0 6 2.68 6 6v88c0 3.3-2.7 6-6 6h-268c-3.3 0-6-2.7-6-6z" stroke="#5e5e5e" stroke-width="3" fill="#fff"/><use xlink:href="#G" transform="matrix(1,0,0,1,5312,298.66666666666663) translate(22.5679012345679 29.80902777777778)"/><use xlink:href="#c" transform="matrix(1,0,0,1,5312,298.66666666666663) translate(127.38271604938271 29.80902777777778)"/><use xlink:href="#V" transform="matrix(1,0,0,1,5312,298.66666666666663) translate(164.41975308641975 29.80902777777778)"/><use xlink:href="#W" transform="matrix(1,0,0,1,5312,298.66666666666663) translate(74.32716049382717 56.47569444444445)"/><use xlink:href="#X" transform="matrix(1,0,0,1,5312,298.66666666666663) translate(128.64814814814815 56.47569444444445)"/><path d="M5440 248.85v17.8" stroke="#5e5e5e" stroke-width="2" fill="none"/><path d="M5440 247.85l1-.13v1.15h-2v-1.15z" fill="#5e5e5e"/><path d="M5440 281.93l-4.64-14.27h9.28z" stroke="#5e5e5e" stroke-width="2" fill="#5e5e5e"/><path d="M5434.98 430.3c2.77-1.83 7.27-1.83 10.04 0l99.96 65.58c2.77 1.8 2.77 4.76 0 6.58l-99.96 65.58c-2.77 1.82-7.27 1.82-10.04 0l-99.96-65.58c-2.77-1.82-2.77-4.77 0-6.58z" stroke="#5e5e5e" stroke-width="3" fill="#fff"/><use xlink:href="#Y" transform="matrix(1,0,0,1,5335,431.9999999999999) translate(61.23956790123456 47.30902777777778)"/><use xlink:href="#V" transform="matrix(1,0,0,1,5335,431.9999999999999) translate(79.75808641975308 47.30902777777778)"/><use xlink:href="#W" transform="matrix(1,0,0,1,5335,431.9999999999999) translate(46.70253086419754 73.97569444444446)"/><use xlink:href="#Z" transform="matrix(1,0,0,1,5335,431.9999999999999) translate(101.02351851851853 73.97569444444446)"/><use xlink:href="#aa" transform="matrix(1,0,0,1,5335,431.9999999999999) translate(120.15932098765433 73.97569444444446)"/><use xlink:href="#ab" transform="matrix(1,0,0,1,5335,431.9999999999999) translate(75.37537037037038 100.64236111111111)"/><path d="M5440 389.17v19.8" stroke="#5e5e5e" stroke-width="2" fill="none"/><path d="M5441 389.2h-2v-1.03h2z" fill="#5e5e5e"/><path d="M5440 424.25l-4.64-14.27h9.28z" stroke="#5e5e5e" stroke-width="2" fill="#5e5e5e"/><path d="M5300 639.67c0-3.32 2.7-6 6-6h268c3.3 0 6 2.68 6 6v66c0 3.3-2.7 6-6 6h-268c-3.3 0-6-2.7-6-6z" stroke="#5e5e5e" stroke-width="3" fill="#fff"/><use xlink:href="#ac" transform="matrix(1,0,0,1,5312,645.6666666666667) translate(15.469135802469154 31.52777777777778)"/><use xlink:href="#W" transform="matrix(1,0,0,1,5312,645.6666666666667) translate(95.53086419753087 31.52777777777778)"/><use xlink:href="#I" transform="matrix(1,0,0,1,5312,645.6666666666667) translate(149.85185185185185 31.52777777777778)"/><use xlink:href="#ad" transform="matrix(1,0,0,1,5312,645.6666666666667) translate(209.04938271604937 31.52777777777778)"/><use xlink:href="#ae" transform="matrix(1,0,0,1,5312,645.6666666666667) translate(228.18518518518516 31.52777777777778)"/><path d="M5441 613.66h-2v-1.5h2zm0-22.82h-2v-19h2z" fill="#5e5e5e"/><path d="M5440.7 570.9l.3-.06v1.03h-2v-1.1zM5440 628.93l-4.64-14.27h9.28z" fill="#5e5e5e"/><path d="M5440 632.17l-6-18.5h12zm-3.26-16.5l3.26 10.02 3.26-10.04z" fill="#5e5e5e"/><use xlink:href="#af" transform="matrix(1,0,0,1,5424.691358024691,590.8401570607031) translate(0 14.222222222222223)"/><path d="M5456.66 790c0 8.28-6.72 15-15 15-8.3 0-15-6.72-15-15 0-8.28 6.7-15 15-15 8.28 0 15 6.72 15 15z" stroke="#5e5e5e" stroke-width="3"/><path d="M5440 714.17v28.33c0 .46.37.83.83.83.46 0 .83.37.83.83V755" stroke="#5e5e5e" stroke-width="2" fill="none"/><path d="M5441 714.2h-2v-1.03h2z" fill="#5e5e5e"/><path d="M5441.66 770.25l-4.64-14.26h9.27z" stroke="#5e5e5e" stroke-width="2" fill="#5e5e5e"/><path d="M5632.55 499.1l2.53 2.52.92 3.4v279.1l-.92 3.43-2.53 2.53-3.42.92h-152.46v-2h152.2l2.64-.7 1.8-1.8.7-2.63V505.3l-.7-2.64-1.8-1.78-2.63-.7h-26.74v-2h27zm-83.16 1.07v-2h29.13v2z" fill="#5e5e5e"/><path d="M5549.42 500.17h-.92l-.2-2h1.12zM5475.67 794.64L5461.4 790l14.27-4.64z" fill="#5e5e5e"/><path d="M5476.67 796l-18.5-6 18.5-6zm-12.03-6l10.03 3.26v-6.52z" fill="#5e5e5e"/><use xlink:href="#ag" transform="matrix(1,0,0,1,5578.527955552613,488.49999993098487) translate(0 14.222222222222223)"/><path d="M4480 583.33c0-3.3 2.7-6 6-6h268c3.3 0 6 2.7 6 6v88c0 3.32-2.7 6-6 6h-268c-3.3 0-6-2.68-6-6z" stroke="#5e5e5e" stroke-width="3" fill="#fff"/><use xlink:href="#l" transform="matrix(1,0,0,1,4492,589.3333333333333) translate(4.820987654320987 29.80902777777778)"/><use xlink:href="#ah" transform="matrix(1,0,0,1,4492,589.3333333333333) translate(90.99382716049382 29.80902777777778)"/><use xlink:href="#ai" transform="matrix(1,0,0,1,4492,589.3333333333333) translate(119.26543209876543 29.80902777777778)"/><use xlink:href="#n" transform="matrix(1,0,0,1,4492,589.3333333333333) translate(214.14197530864197 29.80902777777778)"/><use xlink:href="#aj" transform="matrix(1,0,0,1,4492,589.3333333333333) translate(57.29012345679013 56.47569444444445)"/><use xlink:href="#ak" transform="matrix(1,0,0,1,4492,589.3333333333333) translate(130.87037037037038 56.47569444444445)"/><use xlink:href="#al" transform="matrix(1,0,0,1,4492,589.3333333333333) translate(155.56172839506172 56.47569444444445)"/><path d="M4620 538.5v18.83" stroke="#5e5e5e" stroke-width="2" fill="none"/><path d="M4621 538.53h-2v-1.03h2z" fill="#5e5e5e"/><path d="M4620 572.6l-4.64-14.27h9.28z" stroke="#5e5e5e" stroke-width="2" fill="#5e5e5e"/><path d="M4620 679.83v22.67" stroke="#5e5e5e" stroke-width="2" fill="none"/><path d="M4621 679.86h-2v-1.03h2z" fill="#5e5e5e"/><path d="M4620 717.76l-4.64-14.26h9.28z" stroke="#5e5e5e" stroke-width="2" fill="#5e5e5e"/><path d="M4614.93 901.96c2.8-1.77 7.34-1.77 10.14 0l116.1 73.58c2.8 1.77 2.8 4.65 0 6.42l-116.1 73.58c-2.8 1.77-7.34 1.77-10.14 0l-116.1-73.58c-2.8-1.77-2.8-4.65 0-6.42z" stroke="#5e5e5e" stroke-width="3" fill="#fff"/><use xlink:href="#am" transform="matrix(1,0,0,1,4498.750000000111,903.7500000000002) translate(56.251913580246914 59.96527777777778)"/><use xlink:href="#c" transform="matrix(1,0,0,1,4498.750000000111,903.7500000000002) translate(79.7087037037037 59.96527777777778)"/><use xlink:href="#V" transform="matrix(1,0,0,1,4498.750000000111,903.7500000000002) translate(116.74574074074074 59.96527777777778)"/><use xlink:href="#W" transform="matrix(1,0,0,1,4498.750000000111,903.7500000000002) translate(30.918580246913574 86.63194444444446)"/><use xlink:href="#I" transform="matrix(1,0,0,1,4498.750000000111,903.7500000000002) translate(85.23956790123457 86.63194444444446)"/><use xlink:href="#ad" transform="matrix(1,0,0,1,4498.750000000111,903.7500000000002) translate(144.4370987654321 86.63194444444446)"/><use xlink:href="#an" transform="matrix(1,0,0,1,4498.750000000111,903.7500000000002) translate(163.5729012345679 86.63194444444446)"/><use xlink:href="#ao" transform="matrix(1,0,0,1,4498.750000000111,903.7500000000002) translate(182.09141975308643 86.63194444444446)"/><use xlink:href="#ap" transform="matrix(1,0,0,1,4498.750000000111,903.7500000000002) translate(199.74574074074076 86.63194444444446)"/><path d="M4480 1112.42c0-3.32 2.7-6 6-6h268c3.3 0 6 2.68 6 6v88c0 3.3-2.7 6-6 6h-268c-3.3 0-6-2.7-6-6z" stroke="#5e5e5e" stroke-width="3" fill="#fff"/><use xlink:href="#aq" transform="matrix(1,0,0,1,4492,1118.416666666667) translate(19.604938271604937 29.80902777777778)"/><use xlink:href="#c" transform="matrix(1,0,0,1,4492,1118.416666666667) translate(77.44444444444444 29.80902777777778)"/><use xlink:href="#ar" transform="matrix(1,0,0,1,4492,1118.416666666667) translate(114.48148148148148 29.80902777777778)"/><use xlink:href="#as" transform="matrix(1,0,0,1,4492,1118.416666666667) translate(34.203703703703695 56.47569444444445)"/><use xlink:href="#i" transform="matrix(1,0,0,1,4492,1118.416666666667) translate(87.29012345679013 56.47569444444445)"/><use xlink:href="#c" transform="matrix(1,0,0,1,4492,1118.416666666667) translate(118.15432098765432 56.47569444444445)"/><use xlink:href="#at" transform="matrix(1,0,0,1,4492,1118.416666666667) translate(155.19135802469134 56.47569444444445)"/><path d="M4480 1260.08c0-3.3 2.7-6 6-6h268c3.3 0 6 2.7 6 6v84c0 3.32-2.7 6-6 6h-268c-3.3 0-6-2.68-6-6z" stroke="#5e5e5e" stroke-width="3" fill="#fff"/><g><use xlink:href="#au" transform="matrix(1,0,0,1,4492,1266.0833333333337) translate(51.580246913580254 40.27777777777778)"/><use xlink:href="#c" transform="matrix(1,0,0,1,4492,1266.0833333333337) translate(110.65432098765433 40.27777777777778)"/><use xlink:href="#av" transform="matrix(1,0,0,1,4492,1266.0833333333337) translate(147.69135802469137 40.27777777777778)"/></g><path d="M4160 1437.42c0-3.32 2.7-6 6-6h268c3.3 0 6 2.68 6 6v92c0 3.3-2.7 6-6 6h-268c-3.3 0-6-2.7-6-6z" stroke="#5e5e5e" stroke-width="3" fill="#fff"/><g><use xlink:href="#aq" transform="matrix(1,0,0,1,4172,1443.416666666667) translate(11.518518518518505 17.77777777777778)"/><use xlink:href="#c" transform="matrix(1,0,0,1,4172,1443.416666666667) translate(69.35802469135801 17.77777777777778)"/><use xlink:href="#y" transform="matrix(1,0,0,1,4172,1443.416666666667) translate(106.39506172839505 17.77777777777778)"/><use xlink:href="#aw" transform="matrix(1,0,0,1,4172,1443.416666666667) translate(196.39506172839506 17.77777777777778)"/><use xlink:href="#C" transform="matrix(1,0,0,1,4172,1443.416666666667) translate(33.21604938271605 44.44444444444444)"/><use xlink:href="#ax" transform="matrix(1,0,0,1,4172,1443.416666666667) translate(95.68518518518519 44.44444444444444)"/><use xlink:href="#i" transform="matrix(1,0,0,1,4172,1443.416666666667) translate(161.05555555555554 44.44444444444444)"/><use xlink:href="#E" transform="matrix(1,0,0,1,4172,1443.416666666667) translate(191.91975308641975 44.44444444444444)"/><use xlink:href="#at" transform="matrix(1,0,0,1,4172,1443.416666666667) translate(94.69753086419753 71.11111111111111)"/></g><path d="M4621 1070.95h-2v-11.63h2z" fill="#5e5e5e"/><path d="M4620.53 1058.37l.47-.08v1.05h-2v-1.1zM4620 1101.68l-3.05-9.4h6.1z" fill="#5e5e5e"/><path d="M4620 1104.92l-4.1-12.63h2.1l2 6.14 2-6.15h2.1z" fill="#5e5e5e"/><g><use xlink:href="#af" transform="matrix(1,0,0,1,4604.691358024419,1070.9536100999821) translate(0 14.222222222222223)"/></g><path d="M4620 1208.92v25.16" stroke="#5e5e5e" stroke-width="2" fill="none"/><path d="M4621 1208.94h-2v-1.02h2z" fill="#5e5e5e"/><path d="M4620 1249.35l-4.64-14.27h9.28z" stroke="#5e5e5e" stroke-width="2" fill="#5e5e5e"/><path d="M4620 825v55.67" stroke="#5e5e5e" stroke-width="2" fill="none"/><path d="M4621 825.03h-2V824h2z" fill="#5e5e5e"/><path d="M4620 895.94l-4.64-14.27h9.28z" stroke="#5e5e5e" stroke-width="2" fill="#5e5e5e"/><path d="M4614.98 1397.37c2.77-1.8 7.27-1.8 10.04 0l99.96 65.6c2.77 1.8 2.77 4.75 0 6.57l-99.96 65.6c-2.77 1.8-7.27 1.8-10.04 0l-99.96-65.6c-2.77-1.82-2.77-4.76 0-6.58z" stroke="#5e5e5e" stroke-width="3" fill="#fff"/><g><use xlink:href="#ay" transform="matrix(1,0,0,1,4515,1399.0833333333337) translate(51.33216049382715 59.96527777777778)"/><use xlink:href="#c" transform="matrix(1,0,0,1,4515,1399.0833333333337) translate(73.49265432098764 59.96527777777778)"/><use xlink:href="#az" transform="matrix(1,0,0,1,4515,1399.0833333333337) translate(110.52969135802469 59.96527777777778)"/><use xlink:href="#I" transform="matrix(1,0,0,1,4515,1399.0833333333337) translate(59.665493827160496 86.63194444444446)"/><use xlink:href="#ad" transform="matrix(1,0,0,1,4515,1399.0833333333337) translate(118.86302469135802 86.63194444444446)"/><use xlink:href="#ae" transform="matrix(1,0,0,1,4515,1399.0833333333337) translate(137.99882716049382 86.63194444444446)"/></g><path d="M4620 1352.58v23.5" stroke="#5e5e5e" stroke-width="2" fill="none"/><path d="M4621 1352.6h-2v-1.02h2z" fill="#5e5e5e"/><path d="M4620 1391.33l-4.64-14.26h9.28z" stroke="#5e5e5e" stroke-width="2" fill="#5e5e5e"/><path d="M4472.93 1467.25H4460v-2h12.93zm37.68 0h-7.05v-2h7.06z" fill="#5e5e5e"/><path d="M4511.7 1467.25h-1.12v-2h.92zM4459 1470.9l-14.26-4.65 14.26-4.64z" fill="#5e5e5e"/><path d="M4460 1472.26l-18.5-6 18.5-6.02zm-12.03-6l10.03 3.25v-6.5z" fill="#5e5e5e"/><g><use xlink:href="#af" transform="matrix(1,0,0,1,4472.927857025568,1455.5833332643188) translate(0 14.222222222222223)"/></g><path d="M4617.55 859.92l2.53 2.53.92 3.42v14.8h-2v-14.54l-.7-2.64-1.8-1.8-2.63-.7h-307.74l-2.64.7-1.8 1.8-.7 2.63v562.8h-2V865.86l.92-3.42 2.53-2.53 3.42-.92h308.26z" fill="#5e5e5e"/><path d="M4301 1429.92h-2v-1.03h2zM4620 895.94l-4.64-14.27h9.28z" fill="#5e5e5e"/><path d="M4620 899.18l-6-18.5h12zm-3.26-16.5l3.26 10.02 3.26-10.03z" fill="#5e5e5e"/><path d="M4800 1420.25c0-3.3 2.7-6 6-6h268c3.3 0 6 2.7 6 6v92c0 3.3-2.7 6-6 6h-268c-3.3 0-6-2.7-6-6z" stroke="#5e5e5e" stroke-width="3" fill="#fff"/><g><use xlink:href="#aq" transform="matrix(1,0,0,1,4812,1426.2500000000005) translate(4.6975308641975175 17.77777777777778)"/><use xlink:href="#c" transform="matrix(1,0,0,1,4812,1426.2500000000005) translate(62.537037037037024 17.77777777777778)"/><use xlink:href="#y" transform="matrix(1,0,0,1,4812,1426.2500000000005) translate(99.57407407407406 17.77777777777778)"/><use xlink:href="#aA" transform="matrix(1,0,0,1,4812,1426.2500000000005) translate(189.57407407407408 17.77777777777778)"/><use xlink:href="#C" transform="matrix(1,0,0,1,4812,1426.2500000000005) translate(33.21604938271605 44.44444444444444)"/><use xlink:href="#ax" transform="matrix(1,0,0,1,4812,1426.2500000000005) translate(95.68518518518519 44.44444444444444)"/><use xlink:href="#i" transform="matrix(1,0,0,1,4812,1426.2500000000005) translate(161.05555555555554 44.44444444444444)"/><use xlink:href="#E" transform="matrix(1,0,0,1,4812,1426.2500000000005) translate(191.91975308641975 44.44444444444444)"/><use xlink:href="#at" transform="matrix(1,0,0,1,4812,1426.2500000000005) translate(94.69753086419753 71.11111111111111)"/></g><path d="M4741.68 1467.25h-12.3v-2h12.3zm38.32 0h-14.7v-2h14.7z" fill="#5e5e5e"/><path d="M4729.42 1467.25h-.92l-.2-2h1.12zM4795.26 1466.25l-14.26 4.64v-9.3z" fill="#5e5e5e"/><path d="M4798.5 1466.25l-18.5 6v-12zm-16.5 3.26l10.03-3.25L4782 1463z" fill="#5e5e5e"/><g><use xlink:href="#ag" transform="matrix(1,0,0,1,4741.6820633619545,1455.5833332643188) translate(0 14.222222222222223)"/></g><path d="M4937.55 859.92l2.53 2.53.92 3.42v545.88h-2V866.13l-.7-2.64-1.8-1.8-2.63-.7h-307.74l-2.64.7-1.8 1.8-.7 2.63v14.54h-2v-14.8l.92-3.42 2.53-2.53 3.42-.92h308.26z" fill="#5e5e5e"/><path d="M4941 1412.75h-2v-1.03h2zM4620 895.94l-4.64-14.27h9.28z" fill="#5e5e5e"/><path d="M4620 899.18l-6-18.5h12zm-3.26-16.5l3.26 10.02 3.26-10.03z" fill="#5e5e5e"/><path d="M5587 900.63c2.8-1.78 7.34-1.78 10.14 0l116.1 73.58c2.8 1.78 2.8 4.65 0 6.43l-116.1 73.58c-2.8 1.78-7.34 1.78-10.14 0l-116.1-73.57c-2.8-1.78-2.8-4.65 0-6.42z" stroke="#5e5e5e" stroke-width="3" fill="#fff"/><g><use xlink:href="#am" transform="matrix(1,0,0,1,5470.81754747243,902.4166666666667) translate(56.251913580246914 59.96527777777778)"/><use xlink:href="#c" transform="matrix(1,0,0,1,5470.81754747243,902.4166666666667) translate(79.7087037037037 59.96527777777778)"/><use xlink:href="#V" transform="matrix(1,0,0,1,5470.81754747243,902.4166666666667) translate(116.74574074074074 59.96527777777778)"/><use xlink:href="#W" transform="matrix(1,0,0,1,5470.81754747243,902.4166666666667) translate(30.918580246913574 86.63194444444446)"/><use xlink:href="#I" transform="matrix(1,0,0,1,5470.81754747243,902.4166666666667) translate(85.23956790123457 86.63194444444446)"/><use xlink:href="#ad" transform="matrix(1,0,0,1,5470.81754747243,902.4166666666667) translate(144.4370987654321 86.63194444444446)"/><use xlink:href="#aB" transform="matrix(1,0,0,1,5470.81754747243,902.4166666666667) translate(163.5729012345679 86.63194444444446)"/><use xlink:href="#ao" transform="matrix(1,0,0,1,5470.81754747243,902.4166666666667) translate(182.09141975308643 86.63194444444446)"/><use xlink:href="#aC" transform="matrix(1,0,0,1,5470.81754747243,902.4166666666667) translate(199.74574074074076 86.63194444444446)"/></g><path d="M5452.07 1109.08c0-3.3 2.68-6 6-6h268c3.3 0 6 2.7 6 6v92c0 3.32-2.7 6-6 6h-268c-3.32 0-6-2.68-6-6z" stroke="#5e5e5e" stroke-width="3" fill="#fff"/><g><use xlink:href="#aq" transform="matrix(1,0,0,1,5464.067547472319,1115.0833333333335) translate(83.64814814814815 17.77777777777778)"/><use xlink:href="#E" transform="matrix(1,0,0,1,5464.067547472319,1115.0833333333335) translate(141.48765432098764 17.77777777777778)"/><use xlink:href="#aD" transform="matrix(1,0,0,1,5464.067547472319,1115.0833333333335) translate(12.691358024691368 44.44444444444444)"/><use xlink:href="#aE" transform="matrix(1,0,0,1,5464.067547472319,1115.0833333333335) translate(196.39506172839504 44.44444444444444)"/><use xlink:href="#i" transform="matrix(1,0,0,1,5464.067547472319,1115.0833333333335) translate(60.74691358024691 71.11111111111111)"/><use xlink:href="#c" transform="matrix(1,0,0,1,5464.067547472319,1115.0833333333335) translate(91.61111111111111 71.11111111111111)"/><use xlink:href="#at" transform="matrix(1,0,0,1,5464.067547472319,1115.0833333333335) translate(128.64814814814815 71.11111111111111)"/></g><path d="M5452.07 1258.75c0-3.3 2.68-6 6-6h268c3.3 0 6 2.7 6 6v84c0 3.3-2.7 6-6 6h-268c-3.32 0-6-2.7-6-6z" stroke="#5e5e5e" stroke-width="3" fill="#fff"/><g><use xlink:href="#au" transform="matrix(1,0,0,1,5464.067547472319,1264.7500000000002) translate(51.580246913580254 40.27777777777778)"/><use xlink:href="#c" transform="matrix(1,0,0,1,5464.067547472319,1264.7500000000002) translate(110.65432098765433 40.27777777777778)"/><use xlink:href="#av" transform="matrix(1,0,0,1,5464.067547472319,1264.7500000000002) translate(147.69135802469137 40.27777777777778)"/></g><path d="M5132.07 1432.42c0-3.32 2.68-6 6-6h268c3.3 0 6 2.68 6 6v92c0 3.3-2.7 6-6 6h-268c-3.32 0-6-2.7-6-6z" stroke="#5e5e5e" stroke-width="3" fill="#fff"/><g><use xlink:href="#aF" transform="matrix(1,0,0,1,5144.067547472319,1438.416666666667) translate(16.055555555555557 17.77777777777778)"/><use xlink:href="#aG" transform="matrix(1,0,0,1,5144.067547472319,1438.416666666667) translate(101.05555555555554 17.77777777777778)"/><use xlink:href="#aH" transform="matrix(1,0,0,1,5144.067547472319,1438.416666666667) translate(131.91975308641975 17.77777777777778)"/><use xlink:href="#i" transform="matrix(1,0,0,1,5144.067547472319,1438.416666666667) translate(178.21604938271605 17.77777777777778)"/><use xlink:href="#E" transform="matrix(1,0,0,1,5144.067547472319,1438.416666666667) translate(209.08024691358025 17.77777777777778)"/><use xlink:href="#P" transform="matrix(1,0,0,1,5144.067547472319,1438.416666666667) translate(4.018518518518519 44.44444444444444)"/><use xlink:href="#aI" transform="matrix(1,0,0,1,5144.067547472319,1438.416666666667) translate(71.91975308641975 44.44444444444444)"/><use xlink:href="#ax" transform="matrix(1,0,0,1,5144.067547472319,1438.416666666667) translate(149.57407407407408 44.44444444444444)"/><use xlink:href="#n" transform="matrix(1,0,0,1,5144.067547472319,1438.416666666667) translate(214.94444444444446 44.44444444444444)"/><use xlink:href="#aJ" transform="matrix(1,0,0,1,5144.067547472319,1438.416666666667) translate(5.901234567901227 71.11111111111111)"/><use xlink:href="#aK" transform="matrix(1,0,0,1,5144.067547472319,1438.416666666667) translate(60.09876543209876 71.11111111111111)"/><use xlink:href="#i" transform="matrix(1,0,0,1,5144.067547472319,1438.416666666667) translate(115.5925925925926 71.11111111111111)"/><use xlink:href="#c" transform="matrix(1,0,0,1,5144.067547472319,1438.416666666667) translate(146.4567901234568 71.11111111111111)"/><use xlink:href="#at" transform="matrix(1,0,0,1,5144.067547472319,1438.416666666667) translate(183.49382716049382 71.11111111111111)"/></g><path d="M5593.07 1068.62h-2V1058h2z" fill="#5e5e5e"/><path d="M5592.6 1057.04l.47-.08v1.06h-2v-1.12zM5592.07 1098.35l-2.73-8.4h5.45z" fill="#5e5e5e"/><path d="M5592.07 1101.58l-3.78-11.63h2.1l1.67 5.16 1.67-5.15h2.1z" fill="#5e5e5e"/><g><use xlink:href="#af" transform="matrix(1,0,0,1,5576.758905496738,1068.6202767666487) translate(0 14.222222222222223)"/></g><path d="M5592.07 1209.58v23.17" stroke="#5e5e5e" stroke-width="2" fill="none"/><path d="M5593.07 1209.6h-2v-1.02h2z" fill="#5e5e5e"/><path d="M5592.07 1248l-4.64-14.25h9.27z" stroke="#5e5e5e" stroke-width="2" fill="#5e5e5e"/><path d="M5587.05 1396.04c2.77-1.82 7.26-1.82 10.03 0l99.97 65.6c2.77 1.8 2.77 4.75 0 6.57l-99.97 65.6c-2.77 1.8-7.26 1.8-10.03 0l-99.97-65.6c-2.77-1.8-2.77-4.76 0-6.57z" stroke="#5e5e5e" stroke-width="3" fill="#fff"/><g><use xlink:href="#ay" transform="matrix(1,0,0,1,5487.067547472319,1397.7500000000002) translate(51.33216049382715 59.96527777777778)"/><use xlink:href="#c" transform="matrix(1,0,0,1,5487.067547472319,1397.7500000000002) translate(73.49265432098764 59.96527777777778)"/><use xlink:href="#az" transform="matrix(1,0,0,1,5487.067547472319,1397.7500000000002) translate(110.52969135802469 59.96527777777778)"/><use xlink:href="#I" transform="matrix(1,0,0,1,5487.067547472319,1397.7500000000002) translate(59.665493827160496 86.63194444444446)"/><use xlink:href="#ad" transform="matrix(1,0,0,1,5487.067547472319,1397.7500000000002) translate(118.86302469135802 86.63194444444446)"/><use xlink:href="#ae" transform="matrix(1,0,0,1,5487.067547472319,1397.7500000000002) translate(137.99882716049382 86.63194444444446)"/></g><path d="M5592.07 1351.25v23.48" stroke="#5e5e5e" stroke-width="2" fill="none"/><path d="M5593.07 1351.28h-2v-1.03h2z" fill="#5e5e5e"/><path d="M5592.07 1390l-4.64-14.27h9.27z" stroke="#5e5e5e" stroke-width="2" fill="#5e5e5e"/><path d="M5482.67 1463.92v2h-8.28v-2zm-50.6-1.67v-2h11.7v2z" fill="#5e5e5e"/><path d="M5483.78 1465.92h-1.13v-2h.92zM5431.07 1465.9l-14.27-4.65 14.27-4.64z" fill="#5e5e5e"/><path d="M5432.07 1467.26l-18.5-6 18.5-6.02zm-12.03-6l10.03 3.25v-6.5z" fill="#5e5e5e"/><g><use xlink:href="#af" transform="matrix(1,0,0,1,5443.773115915435,1454.2499999309853) translate(0 14.222222222222223)"/></g><path d="M5772.07 1418.92c0-3.32 2.68-6 6-6h268c3.3 0 6 2.68 6 6v92c0 3.3-2.7 6-6 6h-268c-3.32 0-6-2.7-6-6z" stroke="#5e5e5e" stroke-width="3" fill="#fff"/><g><use xlink:href="#aF" transform="matrix(1,0,0,1,5784.067547472319,1424.916666666667) translate(16.055555555555557 17.77777777777778)"/><use xlink:href="#aG" transform="matrix(1,0,0,1,5784.067547472319,1424.916666666667) translate(101.05555555555554 17.77777777777778)"/><use xlink:href="#aH" transform="matrix(1,0,0,1,5784.067547472319,1424.916666666667) translate(131.91975308641975 17.77777777777778)"/><use xlink:href="#i" transform="matrix(1,0,0,1,5784.067547472319,1424.916666666667) translate(178.21604938271605 17.77777777777778)"/><use xlink:href="#E" transform="matrix(1,0,0,1,5784.067547472319,1424.916666666667) translate(209.08024691358025 17.77777777777778)"/><use xlink:href="#B" transform="matrix(1,0,0,1,5784.067547472319,1424.916666666667) translate(10.839506172839506 44.44444444444444)"/><use xlink:href="#aI" transform="matrix(1,0,0,1,5784.067547472319,1424.916666666667) translate(65.09876543209876 44.44444444444444)"/><use xlink:href="#ax" transform="matrix(1,0,0,1,5784.067547472319,1424.916666666667) translate(142.75308641975306 44.44444444444444)"/><use xlink:href="#n" transform="matrix(1,0,0,1,5784.067547472319,1424.916666666667) translate(208.12345679012344 44.44444444444444)"/><use xlink:href="#aJ" transform="matrix(1,0,0,1,5784.067547472319,1424.916666666667) translate(5.901234567901227 71.11111111111111)"/><use xlink:href="#aK" transform="matrix(1,0,0,1,5784.067547472319,1424.916666666667) translate(60.09876543209876 71.11111111111111)"/><use xlink:href="#i" transform="matrix(1,0,0,1,5784.067547472319,1424.916666666667) translate(115.5925925925926 71.11111111111111)"/><use xlink:href="#c" transform="matrix(1,0,0,1,5784.067547472319,1424.916666666667) translate(146.4567901234568 71.11111111111111)"/><use xlink:href="#at" transform="matrix(1,0,0,1,5784.067547472319,1424.916666666667) translate(183.49382716049382 71.11111111111111)"/></g><path d="M5713.75 1465.92h-12.3v-2h12.3zm38.32 0h-14.72v-2h14.72z" fill="#5e5e5e"/><path d="M5701.5 1465.92h-.94l-.2-2h1.13zM5767.33 1464.92l-14.26 4.63v-9.27z" fill="#5e5e5e"/><path d="M5770.57 1464.92l-18.5 6v-12.02zm-16.5 3.26l10.03-3.26-10.03-3.26z" fill="#5e5e5e"/><g><use xlink:href="#ag" transform="matrix(1,0,0,1,5713.749610834274,1454.2499999309853) translate(0 14.222222222222223)"/></g><path d="M5094.23 979.75H4745.6v-2h348.63zm354.74-1.33h-331.13v-2h331.13z" fill="#5e5e5e"/><path d="M4745.62 979.75h-.95l-.16-2h1.12zM5464.24 977.42l-14.27 4.63v-9.27z" fill="#5e5e5e"/><path d="M5467.48 977.42l-18.5 6V971.4zm-16.5 3.26l10.02-3.26-10.03-3.26z" fill="#5e5e5e"/><g><use xlink:href="#ag" transform="matrix(1,0,0,1,5094.231304600468,967.4166666666669) translate(0 14.222222222222223)"/></g><path d="M6067.55 859.1l2.53 2.53.92 3.4v701.02l-.92 3.4-2.53 2.54-3.42.92h-786.2l-3.4-.93-2.54-2.54-.93-3.4v-33.14h2v32.86l.7 2.65 1.8 1.77 2.63.72h785.67l2.64-.72 1.8-1.77.7-2.65V865.3l-.7-2.63-1.8-1.78-2.63-.72H4626.13l-2.64.7-1.8 1.8-.7 2.63v15.37h-2v-15.63l.92-3.4 2.53-2.54 3.42-.92h1438.26z" fill="#5e5e5e"/><path d="M5273.07 1532.94h-2v-1.02h2zM4620 895.94l-4.64-14.27h9.28z" fill="#5e5e5e"/><path d="M4620 899.18l-6-18.5h12zm-3.26-16.5l3.26 10.02 3.26-10.03z" fill="#5e5e5e"/><path d="M5912.07 1519.42v51.5" stroke="#5e5e5e" stroke-width="2" fill="none"/><path d="M5913.07 1519.44h-2v-1.02h2z" fill="#5e5e5e"/><path d="M5912.07 1570.9v1.02" stroke="#5e5e5e" stroke-width="2" fill="none"/><defs><path fill="#333" d="M185-189c-5-48-123-54-124 2 14 75 158 14 163 119 3 78-121 87-175 55-17-10-28-26-33-46l33-7c5 56 141 63 141-1 0-78-155-14-162-118-5-82 145-84 179-34 5 7 8 16 11 25" id="aL"/><path fill="#333" d="M59-47c-2 24 18 29 38 22v24C64 9 27 4 27-40v-127H5v-23h24l9-43h21v43h35v23H59v120" id="aM"/><path fill="#333" d="M141-36C126-15 110 5 73 4 37 3 15-17 15-53c-1-64 63-63 125-63 3-35-9-54-41-54-24 1-41 7-42 31l-33-3c5-37 33-52 76-52 45 0 72 20 72 64v82c-1 20 7 32 28 27v20c-31 9-61-2-59-35zM48-53c0 20 12 33 32 33 41-3 63-29 60-74-43 2-92-5-92 41" id="aN"/><path fill="#333" d="M114-163C36-179 61-72 57 0H25l-1-190h30c1 12-1 29 2 39 6-27 23-49 58-41v29" id="aO"/><g id="a"><use transform="matrix(0.06172839506172839,0,0,0.06172839506172839,0,0)" xlink:href="#aL"/><use transform="matrix(0.06172839506172839,0,0,0.06172839506172839,14.814814814814813,0)" xlink:href="#aM"/><use transform="matrix(0.06172839506172839,0,0,0.06172839506172839,20.98765432098765,0)" xlink:href="#aN"/><use transform="matrix(0.06172839506172839,0,0,0.06172839506172839,33.33333333333333,0)" xlink:href="#aO"/><use transform="matrix(0.06172839506172839,0,0,0.06172839506172839,40.679012345679006,0)" xlink:href="#aM"/></g><path fill="#333" d="M212-179c-10-28-35-45-73-45-59 0-87 40-87 99 0 60 29 101 89 101 43 0 62-24 78-52l27 14C228-24 195 4 139 4 59 4 22-46 18-125c-6-104 99-153 187-111 19 9 31 26 39 46" id="aP"/><path fill="#333" d="M24 0v-261h32V0H24" id="aQ"/><path fill="#333" d="M96-169c-40 0-48 33-48 73s9 75 48 75c24 0 41-14 43-38l32 2c-6 37-31 61-74 61-59 0-76-41-82-99-10-93 101-131 147-64 4 7 5 14 7 22l-32 3c-4-21-16-35-41-35" id="aR"/><path fill="#333" d="M84 4C-5 8 30-112 23-190h32v120c0 31 7 50 39 49 72-2 45-101 50-169h31l1 190h-30c-1-10 1-25-2-33-11 22-28 36-60 37" id="aS"/><path fill="#333" d="M100-194c63 0 86 42 84 106H49c0 40 14 67 53 68 26 1 43-12 49-29l28 8c-11 28-37 45-77 45C44 4 14-33 15-96c1-61 26-98 85-98zm52 81c6-60-76-77-97-28-3 7-6 17-6 28h103" id="aT"/><g id="b"><use transform="matrix(0.06172839506172839,0,0,0.06172839506172839,0,0)" xlink:href="#aP"/><use transform="matrix(0.06172839506172839,0,0,0.06172839506172839,15.987654320987653,0)" xlink:href="#aN"/><use transform="matrix(0.06172839506172839,0,0,0.06172839506172839,28.333333333333332,0)" xlink:href="#aQ"/><use transform="matrix(0.06172839506172839,0,0,0.06172839506172839,33.20987654320987,0)" xlink:href="#aR"/><use transform="matrix(0.06172839506172839,0,0,0.06172839506172839,44.32098765432099,0)" xlink:href="#aS"/><use transform="matrix(0.06172839506172839,0,0,0.06172839506172839,56.666666666666664,0)" xlink:href="#aQ"/><use transform="matrix(0.06172839506172839,0,0,0.06172839506172839,61.54320987654321,0)" xlink:href="#aN"/><use transform="matrix(0.06172839506172839,0,0,0.06172839506172839,73.88888888888889,0)" xlink:href="#aM"/><use transform="matrix(0.06172839506172839,0,0,0.06172839506172839,80.06172839506172,0)" xlink:href="#aT"/></g><path fill="#333" d="M106-169C34-169 62-67 57 0H25v-261h32l-1 103c12-21 28-36 61-36 89 0 53 116 60 194h-32v-121c2-32-8-49-39-48" id="aU"/><g id="c"><use transform="matrix(0.06172839506172839,0,0,0.06172839506172839,0,0)" xlink:href="#aM"/><use transform="matrix(0.06172839506172839,0,0,0.06172839506172839,6.172839506172839,0)" xlink:href="#aU"/><use transform="matrix(0.06172839506172839,0,0,0.06172839506172839,18.51851851851852,0)" xlink:href="#aT"/></g><path fill="#333" d="M100-194c62-1 85 37 85 99 1 63-27 99-86 99S16-35 15-95c0-66 28-99 85-99zM99-20c44 1 53-31 53-75 0-43-8-75-51-75s-53 32-53 75 10 74 51 75" id="aV"/><path fill="#333" d="M101-234c-31-9-42 10-38 44h38v23H63V0H32v-167H5v-23h27c-7-52 17-82 69-68v24" id="aW"/><path fill="#333" d="M24-231v-30h32v30H24zM24 0v-190h32V0H24" id="aX"/><path fill="#333" d="M117-194c89-4 53 116 60 194h-32v-121c0-31-8-49-39-48C34-167 62-67 57 0H25l-1-190h30c1 10-1 24 2 32 11-22 29-35 61-36" id="aY"/><path fill="#333" d="M135-143c-3-34-86-38-87 0 15 53 115 12 119 90S17 21 10-45l28-5c4 36 97 45 98 0-10-56-113-15-118-90-4-57 82-63 122-42 12 7 21 19 24 35" id="aZ"/><g id="d"><use transform="matrix(0.06172839506172839,0,0,0.06172839506172839,0,0)" xlink:href="#aR"/><use transform="matrix(0.06172839506172839,0,0,0.06172839506172839,11.11111111111111,0)" xlink:href="#aV"/><use transform="matrix(0.06172839506172839,0,0,0.06172839506172839,23.45679012345679,0)" xlink:href="#aT"/><use transform="matrix(0.06172839506172839,0,0,0.06172839506172839,35.80246913580247,0)" xlink:href="#aW"/><use transform="matrix(0.06172839506172839,0,0,0.06172839506172839,41.54320987654321,0)" xlink:href="#aW"/><use transform="matrix(0.06172839506172839,0,0,0.06172839506172839,47.71604938271605,0)" xlink:href="#aX"/><use transform="matrix(0.06172839506172839,0,0,0.06172839506172839,52.592592592592595,0)" xlink:href="#aR"/><use transform="matrix(0.06172839506172839,0,0,0.06172839506172839,63.70370370370372,0)" xlink:href="#aX"/><use transform="matrix(0.06172839506172839,0,0,0.06172839506172839,68.58024691358025,0)" xlink:href="#aT"/><use transform="matrix(0.06172839506172839,0,0,0.06172839506172839,80.92592592592594,0)" xlink:href="#aY"/><use transform="matrix(0.06172839506172839,0,0,0.06172839506172839,93.27160493827162,0)" xlink:href="#aM"/><use transform="matrix(0.06172839506172839,0,0,0.06172839506172839,99.44444444444446,0)" xlink:href="#aZ"/></g><g id="e"><use transform="matrix(0.06172839506172839,0,0,0.06172839506172839,0,0)" xlink:href="#aV"/><use transform="matrix(0.06172839506172839,0,0,0.06172839506172839,12.345679012345679,0)" xlink:href="#aW"/></g><path fill="#333" d="M210-169c-67 3-38 105-44 169h-31v-121c0-29-5-50-35-48C34-165 62-65 56 0H25l-1-190h30c1 10-1 24 2 32 10-44 99-50 107 0 11-21 27-35 58-36 85-2 47 119 55 194h-31v-121c0-29-5-49-35-48" id="ba"/><path fill="#333" d="M115-194c55 1 70 41 70 98S169 2 115 4C84 4 66-9 55-30l1 105H24l-1-265h31l2 30c10-21 28-34 59-34zm-8 174c40 0 45-34 45-75s-6-73-45-74c-42 0-51 32-51 76 0 43 10 73 51 73" id="bb"/><g id="f"><use transform="matrix(0.06172839506172839,0,0,0.06172839506172839,0,0)" xlink:href="#aX"/><use transform="matrix(0.06172839506172839,0,0,0.06172839506172839,4.876543209876543,0)" xlink:href="#ba"/><use transform="matrix(0.06172839506172839,0,0,0.06172839506172839,23.33333333333333,0)" xlink:href="#bb"/><use transform="matrix(0.06172839506172839,0,0,0.06172839506172839,35.679012345679006,0)" xlink:href="#aS"/><use transform="matrix(0.06172839506172839,0,0,0.06172839506172839,48.02469135802468,0)" xlink:href="#aQ"/><use transform="matrix(0.06172839506172839,0,0,0.06172839506172839,52.90123456790123,0)" xlink:href="#aZ"/><use transform="matrix(0.06172839506172839,0,0,0.06172839506172839,64.01234567901234,0)" xlink:href="#aT"/></g><g id="g"><use transform="matrix(0.06172839506172839,0,0,0.06172839506172839,0,0)" xlink:href="#aO"/><use transform="matrix(0.06172839506172839,0,0,0.06172839506172839,7.345679012345679,0)" xlink:href="#aT"/><use transform="matrix(0.06172839506172839,0,0,0.06172839506172839,19.691358024691358,0)" xlink:href="#aZ"/><use transform="matrix(0.06172839506172839,0,0,0.06172839506172839,30.80246913580247,0)" xlink:href="#bb"/><use transform="matrix(0.06172839506172839,0,0,0.06172839506172839,43.148148148148145,0)" xlink:href="#aV"/><use transform="matrix(0.06172839506172839,0,0,0.06172839506172839,55.49382716049382,0)" xlink:href="#aY"/><use transform="matrix(0.06172839506172839,0,0,0.06172839506172839,67.8395061728395,0)" xlink:href="#aZ"/><use transform="matrix(0.06172839506172839,0,0,0.06172839506172839,78.95061728395062,0)" xlink:href="#aT"/></g><path fill="#333" d="M115-194c53 0 69 39 70 98 0 66-23 100-70 100C84 3 66-7 56-30L54 0H23l1-261h32v101c10-23 28-34 59-34zm-8 174c40 0 45-34 45-75 0-40-5-75-45-74-42 0-51 32-51 76 0 43 10 73 51 73" id="bc"/><path fill="#333" d="M85-194c31 0 48 13 60 33l-1-100h32l1 261h-30c-2-10 0-23-3-31C134-8 116 4 85 4 32 4 16-35 15-94c0-66 23-100 70-100zm9 24c-40 0-46 34-46 75 0 40 6 74 45 74 42 0 51-32 51-76 0-42-9-74-50-73" id="bd"/><g id="h"><use transform="matrix(0.06172839506172839,0,0,0.06172839506172839,0,0)" xlink:href="#bc"/><use transform="matrix(0.06172839506172839,0,0,0.06172839506172839,12.345679012345679,0)" xlink:href="#aN"/><use transform="matrix(0.06172839506172839,0,0,0.06172839506172839,24.691358024691358,0)" xlink:href="#aZ"/><use transform="matrix(0.06172839506172839,0,0,0.06172839506172839,35.80246913580247,0)" xlink:href="#aT"/><use transform="matrix(0.06172839506172839,0,0,0.06172839506172839,48.148148148148145,0)" xlink:href="#bd"/></g><g id="i"><use transform="matrix(0.06172839506172839,0,0,0.06172839506172839,0,0)" xlink:href="#aV"/><use transform="matrix(0.06172839506172839,0,0,0.06172839506172839,12.345679012345679,0)" xlink:href="#aY"/></g><path fill="#333" d="M177-190C167-65 218 103 67 71c-23-6-38-20-44-43l32-5c15 47 100 32 89-28v-30C133-14 115 1 83 1 29 1 15-40 15-95c0-56 16-97 71-98 29-1 48 16 59 35 1-10 0-23 2-32h30zM94-22c36 0 50-32 50-73 0-42-14-75-50-75-39 0-46 34-46 75s6 73 46 73" id="be"/><g id="j"><use transform="matrix(0.06172839506172839,0,0,0.06172839506172839,0,0)" xlink:href="#aZ"/><use transform="matrix(0.06172839506172839,0,0,0.06172839506172839,11.11111111111111,0)" xlink:href="#aN"/><use transform="matrix(0.06172839506172839,0,0,0.06172839506172839,23.45679012345679,0)" xlink:href="#ba"/><use transform="matrix(0.06172839506172839,0,0,0.06172839506172839,41.91358024691358,0)" xlink:href="#bb"/><use transform="matrix(0.06172839506172839,0,0,0.06172839506172839,54.25925925925926,0)" xlink:href="#aQ"/><use transform="matrix(0.06172839506172839,0,0,0.06172839506172839,59.135802469135804,0)" xlink:href="#aX"/><use transform="matrix(0.06172839506172839,0,0,0.06172839506172839,64.01234567901234,0)" xlink:href="#aY"/><use transform="matrix(0.06172839506172839,0,0,0.06172839506172839,76.35802469135803,0)" xlink:href="#be"/></g><path fill="#333" d="M145-31C134-9 116 4 85 4 32 4 16-35 15-94c0-59 17-99 70-100 32-1 48 14 60 33 0-11-1-24 2-32h30l-1 268h-32zM93-21c41 0 51-33 51-76s-8-73-50-73c-40 0-46 35-46 75s5 74 45 74" id="bf"/><path fill="#333" d="M179-190L93 31C79 59 56 82 12 73V49c39 6 53-20 64-50L1-190h34L92-34l54-156h33" id="bg"/><g id="k"><use transform="matrix(0.06172839506172839,0,0,0.06172839506172839,0,0)" xlink:href="#aW"/><use transform="matrix(0.06172839506172839,0,0,0.06172839506172839,6.172839506172839,0)" xlink:href="#aO"/><use transform="matrix(0.06172839506172839,0,0,0.06172839506172839,13.518518518518519,0)" xlink:href="#aT"/><use transform="matrix(0.06172839506172839,0,0,0.06172839506172839,25.864197530864196,0)" xlink:href="#bf"/><use transform="matrix(0.06172839506172839,0,0,0.06172839506172839,38.20987654320987,0)" xlink:href="#aS"/><use transform="matrix(0.06172839506172839,0,0,0.06172839506172839,50.55555555555555,0)" xlink:href="#aT"/><use transform="matrix(0.06172839506172839,0,0,0.06172839506172839,62.90123456790123,0)" xlink:href="#aY"/><use transform="matrix(0.06172839506172839,0,0,0.06172839506172839,75.24691358024691,0)" xlink:href="#aR"/><use transform="matrix(0.06172839506172839,0,0,0.06172839506172839,86.35802469135803,0)" xlink:href="#bg"/></g><path fill="#333" d="M33 0v-248h34V0H33" id="bh"/><g id="l"><use transform="matrix(0.06172839506172839,0,0,0.06172839506172839,0,0)" xlink:href="#bh"/><use transform="matrix(0.06172839506172839,0,0,0.06172839506172839,6.172839506172839,0)" xlink:href="#aY"/><use transform="matrix(0.06172839506172839,0,0,0.06172839506172839,18.51851851851852,0)" xlink:href="#aX"/><use transform="matrix(0.06172839506172839,0,0,0.06172839506172839,23.395061728395063,0)" xlink:href="#aM"/><use transform="matrix(0.06172839506172839,0,0,0.06172839506172839,29.567901234567902,0)" xlink:href="#aX"/><use transform="matrix(0.06172839506172839,0,0,0.06172839506172839,34.44444444444444,0)" xlink:href="#aN"/><use transform="matrix(0.06172839506172839,0,0,0.06172839506172839,46.79012345679012,0)" xlink:href="#aQ"/><use transform="matrix(0.06172839506172839,0,0,0.06172839506172839,51.666666666666664,0)" xlink:href="#aX"/><use transform="matrix(0.06172839506172839,0,0,0.06172839506172839,56.54320987654321,0)" xlink:href="#aZ"/><use transform="matrix(0.06172839506172839,0,0,0.06172839506172839,67.65432098765432,0)" xlink:href="#aT"/></g><path fill="#333" d="M127-220V0H93v-220H8v-28h204v28h-85" id="bi"/><g id="m"><use transform="matrix(0.06172839506172839,0,0,0.06172839506172839,0,0)" xlink:href="#bi"/><use transform="matrix(0.06172839506172839,0,0,0.06172839506172839,12.716049382716047,0)" xlink:href="#aX"/><use transform="matrix(0.06172839506172839,0,0,0.06172839506172839,17.592592592592588,0)" xlink:href="#ba"/><use transform="matrix(0.06172839506172839,0,0,0.06172839506172839,36.04938271604938,0)" xlink:href="#aT"/><use transform="matrix(0.06172839506172839,0,0,0.06172839506172839,48.395061728395056,0)" xlink:href="#aO"/><use transform="matrix(0.06172839506172839,0,0,0.06172839506172839,55.74074074074073,0)" xlink:href="#aZ"/></g><g id="n"><use transform="matrix(0.06172839506172839,0,0,0.06172839506172839,0,0)" xlink:href="#aN"/><use transform="matrix(0.06172839506172839,0,0,0.06172839506172839,12.345679012345679,0)" xlink:href="#aY"/><use transform="matrix(0.06172839506172839,0,0,0.06172839506172839,24.691358024691358,0)" xlink:href="#bd"/></g><path fill="#333" d="M205 0l-28-72H64L36 0H1l101-248h38L239 0h-34zm-38-99l-47-123c-12 45-31 82-46 123h93" id="bj"/><path fill="#333" d="M30-248c118-7 216 8 213 122C240-48 200 0 122 0H30v-248zM63-27c89 8 146-16 146-99s-60-101-146-95v194" id="bk"/><g id="o"><use transform="matrix(0.06172839506172839,0,0,0.06172839506172839,0,0)" xlink:href="#bj"/><use transform="matrix(0.06172839506172839,0,0,0.06172839506172839,14.814814814814813,0)" xlink:href="#bk"/><use transform="matrix(0.06172839506172839,0,0,0.06172839506172839,30.80246913580247,0)" xlink:href="#aP"/></g><g id="p"><use transform="matrix(0.06172839506172839,0,0,0.06172839506172839,0,0)" xlink:href="#aL"/><use transform="matrix(0.06172839506172839,0,0,0.06172839506172839,14.814814814814813,0)" xlink:href="#aM"/><use transform="matrix(0.06172839506172839,0,0,0.06172839506172839,20.98765432098765,0)" xlink:href="#aN"/><use transform="matrix(0.06172839506172839,0,0,0.06172839506172839,33.33333333333333,0)" xlink:href="#aO"/><use transform="matrix(0.06172839506172839,0,0,0.06172839506172839,40.679012345679006,0)" xlink:href="#aM"/></g><g id="q"><use transform="matrix(0.06172839506172839,0,0,0.06172839506172839,0,0)" xlink:href="#aN"/><use transform="matrix(0.06172839506172839,0,0,0.06172839506172839,12.345679012345679,0)" xlink:href="#aY"/><use transform="matrix(0.06172839506172839,0,0,0.06172839506172839,24.691358024691358,0)" xlink:href="#bd"/></g><g id="r"><use transform="matrix(0.06172839506172839,0,0,0.06172839506172839,0,0)" xlink:href="#bj"/><use transform="matrix(0.06172839506172839,0,0,0.06172839506172839,14.814814814814813,0)" xlink:href="#bk"/><use transform="matrix(0.06172839506172839,0,0,0.06172839506172839,30.80246913580247,0)" xlink:href="#aP"/></g><g id="s"><use transform="matrix(0.06172839506172839,0,0,0.06172839506172839,0,0)" xlink:href="#aX"/><use transform="matrix(0.06172839506172839,0,0,0.06172839506172839,4.876543209876543,0)" xlink:href="#aY"/></g><g id="t"><use transform="matrix(0.06172839506172839,0,0,0.06172839506172839,0,0)" xlink:href="#aX"/><use transform="matrix(0.06172839506172839,0,0,0.06172839506172839,4.876543209876543,0)" xlink:href="#aY"/><use transform="matrix(0.06172839506172839,0,0,0.06172839506172839,17.22222222222222,0)" xlink:href="#aM"/><use transform="matrix(0.06172839506172839,0,0,0.06172839506172839,23.39506172839506,0)" xlink:href="#aT"/><use transform="matrix(0.06172839506172839,0,0,0.06172839506172839,35.74074074074074,0)" xlink:href="#aO"/><use transform="matrix(0.06172839506172839,0,0,0.06172839506172839,43.08641975308642,0)" xlink:href="#aO"/><use transform="matrix(0.06172839506172839,0,0,0.06172839506172839,50.432098765432094,0)" xlink:href="#aS"/><use transform="matrix(0.06172839506172839,0,0,0.06172839506172839,62.77777777777777,0)" xlink:href="#bb"/><use transform="matrix(0.06172839506172839,0,0,0.06172839506172839,75.12345679012346,0)" xlink:href="#aM"/></g><g id="u"><use transform="matrix(0.06172839506172839,0,0,0.06172839506172839,0,0)" xlink:href="#ba"/><use transform="matrix(0.06172839506172839,0,0,0.06172839506172839,18.456790123456788,0)" xlink:href="#aV"/><use transform="matrix(0.06172839506172839,0,0,0.06172839506172839,30.80246913580247,0)" xlink:href="#bd"/><use transform="matrix(0.06172839506172839,0,0,0.06172839506172839,43.148148148148145,0)" xlink:href="#aT"/></g><g id="v"><use transform="matrix(0.06172839506172839,0,0,0.06172839506172839,0,0)" xlink:href="#bj"/><use transform="matrix(0.06172839506172839,0,0,0.06172839506172839,14.814814814814813,0)" xlink:href="#bk"/><use transform="matrix(0.06172839506172839,0,0,0.06172839506172839,30.80246913580247,0)" xlink:href="#aP"/></g><g id="w"><use transform="matrix(0.06172839506172839,0,0,0.06172839506172839,0,0)" xlink:href="#bh"/><use transform="matrix(0.06172839506172839,0,0,0.06172839506172839,6.172839506172839,0)" xlink:href="#aY"/><use transform="matrix(0.06172839506172839,0,0,0.06172839506172839,18.51851851851852,0)" xlink:href="#aM"/><use transform="matrix(0.06172839506172839,0,0,0.06172839506172839,24.691358024691358,0)" xlink:href="#aT"/><use transform="matrix(0.06172839506172839,0,0,0.06172839506172839,37.03703703703704,0)" xlink:href="#aO"/><use transform="matrix(0.06172839506172839,0,0,0.06172839506172839,44.382716049382715,0)" xlink:href="#aO"/><use transform="matrix(0.06172839506172839,0,0,0.06172839506172839,51.72839506172839,0)" xlink:href="#aS"/><use transform="matrix(0.06172839506172839,0,0,0.06172839506172839,64.07407407407408,0)" xlink:href="#bb"/><use transform="matrix(0.06172839506172839,0,0,0.06172839506172839,76.41975308641976,0)" xlink:href="#aM"/></g><g id="x"><use transform="matrix(0.06172839506172839,0,0,0.06172839506172839,0,0)" xlink:href="#bj"/><use transform="matrix(0.06172839506172839,0,0,0.06172839506172839,14.814814814814813,0)" xlink:href="#bd"/><use transform="matrix(0.06172839506172839,0,0,0.06172839506172839,27.160493827160494,0)" xlink:href="#bd"/></g><g id="y"><use transform="matrix(0.06172839506172839,0,0,0.06172839506172839,0,0)" xlink:href="#aZ"/><use transform="matrix(0.06172839506172839,0,0,0.06172839506172839,11.11111111111111,0)" xlink:href="#aN"/><use transform="matrix(0.06172839506172839,0,0,0.06172839506172839,23.45679012345679,0)" xlink:href="#ba"/><use transform="matrix(0.06172839506172839,0,0,0.06172839506172839,41.91358024691358,0)" xlink:href="#bb"/><use transform="matrix(0.06172839506172839,0,0,0.06172839506172839,54.25925925925926,0)" xlink:href="#aQ"/><use transform="matrix(0.06172839506172839,0,0,0.06172839506172839,59.135802469135804,0)" xlink:href="#aT"/><use transform="matrix(0.06172839506172839,0,0,0.06172839506172839,71.48148148148148,0)" xlink:href="#bd"/></g><path fill="#333" d="M108 0H70L1-190h34L89-25l56-165h34" id="bl"/><g id="z"><use transform="matrix(0.06172839506172839,0,0,0.06172839506172839,0,0)" xlink:href="#bl"/><use transform="matrix(0.06172839506172839,0,0,0.06172839506172839,11.11111111111111,0)" xlink:href="#aV"/><use transform="matrix(0.06172839506172839,0,0,0.06172839506172839,23.45679012345679,0)" xlink:href="#aQ"/><use transform="matrix(0.06172839506172839,0,0,0.06172839506172839,28.333333333333336,0)" xlink:href="#aM"/><use transform="matrix(0.06172839506172839,0,0,0.06172839506172839,34.50617283950618,0)" xlink:href="#aN"/><use transform="matrix(0.06172839506172839,0,0,0.06172839506172839,46.851851851851855,0)" xlink:href="#be"/><use transform="matrix(0.06172839506172839,0,0,0.06172839506172839,59.19753086419753,0)" xlink:href="#aT"/></g><g id="A"><use transform="matrix(0.06172839506172839,0,0,0.06172839506172839,0,0)" xlink:href="#aX"/><use transform="matrix(0.06172839506172839,0,0,0.06172839506172839,4.876543209876543,0)" xlink:href="#aY"/><use transform="matrix(0.06172839506172839,0,0,0.06172839506172839,17.22222222222222,0)" xlink:href="#aM"/><use transform="matrix(0.06172839506172839,0,0,0.06172839506172839,23.39506172839506,0)" xlink:href="#aV"/></g><g id="B"><use transform="matrix(0.06172839506172839,0,0,0.06172839506172839,0,0)" xlink:href="#aX"/><use transform="matrix(0.06172839506172839,0,0,0.06172839506172839,4.876543209876543,0)" xlink:href="#aY"/><use transform="matrix(0.06172839506172839,0,0,0.06172839506172839,17.22222222222222,0)" xlink:href="#bb"/><use transform="matrix(0.06172839506172839,0,0,0.06172839506172839,29.5679012345679,0)" xlink:href="#aS"/><use transform="matrix(0.06172839506172839,0,0,0.06172839506172839,41.913580246913575,0)" xlink:href="#aM"/></g><g id="C"><use transform="matrix(0.06172839506172839,0,0,0.06172839506172839,0,0)" xlink:href="#bc"/><use transform="matrix(0.06172839506172839,0,0,0.06172839506172839,12.345679012345679,0)" xlink:href="#aS"/><use transform="matrix(0.06172839506172839,0,0,0.06172839506172839,24.691358024691358,0)" xlink:href="#aW"/><use transform="matrix(0.06172839506172839,0,0,0.06172839506172839,30.432098765432098,0)" xlink:href="#aW"/><use transform="matrix(0.06172839506172839,0,0,0.06172839506172839,36.60493827160494,0)" xlink:href="#aT"/><use transform="matrix(0.06172839506172839,0,0,0.06172839506172839,48.95061728395061,0)" xlink:href="#aO"/></g><g id="D"><use transform="matrix(0.06172839506172839,0,0,0.06172839506172839,0,0)" xlink:href="#aN"/><use transform="matrix(0.06172839506172839,0,0,0.06172839506172839,12.345679012345679,0)" xlink:href="#aM"/></g><g id="E"><use transform="matrix(0.06172839506172839,0,0,0.06172839506172839,0,0)" xlink:href="#aM"/><use transform="matrix(0.06172839506172839,0,0,0.06172839506172839,6.172839506172839,0)" xlink:href="#aU"/><use transform="matrix(0.06172839506172839,0,0,0.06172839506172839,18.51851851851852,0)" xlink:href="#aT"/></g><g id="F"><use transform="matrix(0.06172839506172839,0,0,0.06172839506172839,0,0)" xlink:href="#bb"/><use transform="matrix(0.06172839506172839,0,0,0.06172839506172839,12.345679012345679,0)" xlink:href="#aV"/><use transform="matrix(0.06172839506172839,0,0,0.06172839506172839,24.691358024691358,0)" xlink:href="#aX"/><use transform="matrix(0.06172839506172839,0,0,0.06172839506172839,29.5679012345679,0)" xlink:href="#aY"/><use transform="matrix(0.06172839506172839,0,0,0.06172839506172839,41.913580246913575,0)" xlink:href="#aM"/><use transform="matrix(0.06172839506172839,0,0,0.06172839506172839,48.08641975308642,0)" xlink:href="#aT"/><use transform="matrix(0.06172839506172839,0,0,0.06172839506172839,60.432098765432094,0)" xlink:href="#aO"/></g><g id="G"><use transform="matrix(0.06172839506172839,0,0,0.06172839506172839,0,0)" xlink:href="#bh"/><use transform="matrix(0.06172839506172839,0,0,0.06172839506172839,6.172839506172839,0)" xlink:href="#aY"/><use transform="matrix(0.06172839506172839,0,0,0.06172839506172839,18.51851851851852,0)" xlink:href="#aR"/><use transform="matrix(0.06172839506172839,0,0,0.06172839506172839,29.62962962962963,0)" xlink:href="#aO"/><use transform="matrix(0.06172839506172839,0,0,0.06172839506172839,36.97530864197531,0)" xlink:href="#aT"/><use transform="matrix(0.06172839506172839,0,0,0.06172839506172839,49.32098765432099,0)" xlink:href="#ba"/><use transform="matrix(0.06172839506172839,0,0,0.06172839506172839,67.77777777777777,0)" xlink:href="#aT"/><use transform="matrix(0.06172839506172839,0,0,0.06172839506172839,80.12345679012346,0)" xlink:href="#aY"/><use transform="matrix(0.06172839506172839,0,0,0.06172839506172839,92.46913580246914,0)" xlink:href="#aM"/></g><g id="H"><use transform="matrix(0.06172839506172839,0,0,0.06172839506172839,0,0)" xlink:href="#bc"/><use transform="matrix(0.06172839506172839,0,0,0.06172839506172839,12.345679012345679,0)" xlink:href="#aT"/><use transform="matrix(0.06172839506172839,0,0,0.06172839506172839,24.691358024691358,0)" xlink:href="#be"/><use transform="matrix(0.06172839506172839,0,0,0.06172839506172839,37.03703703703704,0)" xlink:href="#be"/><use transform="matrix(0.06172839506172839,0,0,0.06172839506172839,49.382716049382715,0)" xlink:href="#aX"/><use transform="matrix(0.06172839506172839,0,0,0.06172839506172839,54.25925925925926,0)" xlink:href="#aY"/><use transform="matrix(0.06172839506172839,0,0,0.06172839506172839,66.60493827160494,0)" xlink:href="#be"/></g><path fill="#333" d="M141 0L90-78 38 0H4l68-98-65-92h35l48 74 47-74h35l-64 92 68 98h-35" id="bm"/><g id="I"><use transform="matrix(0.06172839506172839,0,0,0.06172839506172839,0,0)" xlink:href="#aX"/><use transform="matrix(0.06172839506172839,0,0,0.06172839506172839,4.876543209876543,0)" xlink:href="#aY"/><use transform="matrix(0.06172839506172839,0,0,0.06172839506172839,17.22222222222222,0)" xlink:href="#bd"/><use transform="matrix(0.06172839506172839,0,0,0.06172839506172839,29.5679012345679,0)" xlink:href="#aT"/><use transform="matrix(0.06172839506172839,0,0,0.06172839506172839,41.913580246913575,0)" xlink:href="#bm"/></g><g id="J"><use transform="matrix(0.06172839506172839,0,0,0.06172839506172839,0,0)" xlink:href="#aR"/><use transform="matrix(0.06172839506172839,0,0,0.06172839506172839,11.11111111111111,0)" xlink:href="#aV"/><use transform="matrix(0.06172839506172839,0,0,0.06172839506172839,23.45679012345679,0)" xlink:href="#aY"/><use transform="matrix(0.06172839506172839,0,0,0.06172839506172839,35.80246913580247,0)" xlink:href="#bl"/><use transform="matrix(0.06172839506172839,0,0,0.06172839506172839,46.91358024691358,0)" xlink:href="#aV"/><use transform="matrix(0.06172839506172839,0,0,0.06172839506172839,59.25925925925926,0)" xlink:href="#aQ"/><use transform="matrix(0.06172839506172839,0,0,0.06172839506172839,64.1358024691358,0)" xlink:href="#aS"/><use transform="matrix(0.06172839506172839,0,0,0.06172839506172839,76.48148148148148,0)" xlink:href="#aM"/><use transform="matrix(0.06172839506172839,0,0,0.06172839506172839,82.65432098765432,0)" xlink:href="#aX"/><use transform="matrix(0.06172839506172839,0,0,0.06172839506172839,87.53086419753086,0)" xlink:href="#aV"/><use transform="matrix(0.06172839506172839,0,0,0.06172839506172839,99.87654320987654,0)" xlink:href="#aY"/></g><g id="K"><use transform="matrix(0.06172839506172839,0,0,0.06172839506172839,0,0)" xlink:href="#aZ"/><use transform="matrix(0.06172839506172839,0,0,0.06172839506172839,11.11111111111111,0)" xlink:href="#aS"/><use transform="matrix(0.06172839506172839,0,0,0.06172839506172839,23.45679012345679,0)" xlink:href="#ba"/></g><path fill="#333" d="M87 75C49 33 22-17 22-94c0-76 28-126 65-167h31c-38 41-64 92-64 168S80 34 118 75H87" id="bn"/><path fill="#333" d="M33-261c38 41 65 92 65 168S71 34 33 75H2C39 34 66-17 66-93S39-220 2-261h31" id="bo"/><g id="L"><use transform="matrix(0.06172839506172839,0,0,0.06172839506172839,0,0)" xlink:href="#aU"/><use transform="matrix(0.06172839506172839,0,0,0.06172839506172839,12.345679012345679,0)" xlink:href="#bn"/><use transform="matrix(0.06172839506172839,0,0,0.06172839506172839,19.691358024691358,0)" xlink:href="#aY"/><use transform="matrix(0.06172839506172839,0,0,0.06172839506172839,32.03703703703704,0)" xlink:href="#bo"/></g><g id="M"><use transform="matrix(0.06172839506172839,0,0,0.06172839506172839,0,0)" xlink:href="#aM"/><use transform="matrix(0.06172839506172839,0,0,0.06172839506172839,6.172839506172839,0)" xlink:href="#aX"/><use transform="matrix(0.06172839506172839,0,0,0.06172839506172839,11.049382716049383,0)" xlink:href="#ba"/><use transform="matrix(0.06172839506172839,0,0,0.06172839506172839,29.50617283950617,0)" xlink:href="#aT"/><use transform="matrix(0.06172839506172839,0,0,0.06172839506172839,41.85185185185185,0)" xlink:href="#aZ"/></g><g id="N"><use transform="matrix(0.06172839506172839,0,0,0.06172839506172839,0,0)" xlink:href="#bm"/><use transform="matrix(0.06172839506172839,0,0,0.06172839506172839,11.11111111111111,0)" xlink:href="#bn"/><use transform="matrix(0.06172839506172839,0,0,0.06172839506172839,18.45679012345679,0)" xlink:href="#aY"/><use transform="matrix(0.06172839506172839,0,0,0.06172839506172839,30.80246913580247,0)" xlink:href="#bo"/></g><g id="O"><use transform="matrix(0.06172839506172839,0,0,0.06172839506172839,0,0)" xlink:href="#aL"/><use transform="matrix(0.06172839506172839,0,0,0.06172839506172839,14.814814814814813,0)" xlink:href="#aN"/><use transform="matrix(0.06172839506172839,0,0,0.06172839506172839,27.160493827160494,0)" xlink:href="#bl"/><use transform="matrix(0.06172839506172839,0,0,0.06172839506172839,38.27160493827161,0)" xlink:href="#aT"/></g><g id="P"><use transform="matrix(0.06172839506172839,0,0,0.06172839506172839,0,0)" xlink:href="#aV"/><use transform="matrix(0.06172839506172839,0,0,0.06172839506172839,12.345679012345679,0)" xlink:href="#aS"/><use transform="matrix(0.06172839506172839,0,0,0.06172839506172839,24.691358024691358,0)" xlink:href="#aM"/><use transform="matrix(0.06172839506172839,0,0,0.06172839506172839,30.864197530864196,0)" xlink:href="#bb"/><use transform="matrix(0.06172839506172839,0,0,0.06172839506172839,43.20987654320987,0)" xlink:href="#aS"/><use transform="matrix(0.06172839506172839,0,0,0.06172839506172839,55.55555555555555,0)" xlink:href="#aM"/></g><g id="Q"><use transform="matrix(0.06172839506172839,0,0,0.06172839506172839,0,0)" xlink:href="#bl"/><use transform="matrix(0.06172839506172839,0,0,0.06172839506172839,11.11111111111111,0)" xlink:href="#aN"/><use transform="matrix(0.06172839506172839,0,0,0.06172839506172839,23.45679012345679,0)" xlink:href="#aQ"/><use transform="matrix(0.06172839506172839,0,0,0.06172839506172839,28.333333333333336,0)" xlink:href="#aS"/><use transform="matrix(0.06172839506172839,0,0,0.06172839506172839,40.67901234567901,0)" xlink:href="#aT"/></g><path fill="#333" d="M232-93c-1 65-40 97-104 97C67 4 28-28 28-90v-158h33c8 89-33 224 67 224 102 0 64-133 71-224h33v155" id="bp"/><g id="R"><use transform="matrix(0.06172839506172839,0,0,0.06172839506172839,0,0)" xlink:href="#bp"/><use transform="matrix(0.06172839506172839,0,0,0.06172839506172839,15.987654320987653,0)" xlink:href="#aZ"/><use transform="matrix(0.06172839506172839,0,0,0.06172839506172839,27.098765432098766,0)" xlink:href="#aT"/><use transform="matrix(0.06172839506172839,0,0,0.06172839506172839,39.44444444444444,0)" xlink:href="#aO"/></g><path fill="#333" d="M240 0l2-218c-23 76-54 145-80 218h-23L58-218 59 0H30v-248h44l77 211c21-75 51-140 76-211h43V0h-30" id="bq"/><g id="S"><use transform="matrix(0.06172839506172839,0,0,0.06172839506172839,0,0)" xlink:href="#bq"/><use transform="matrix(0.06172839506172839,0,0,0.06172839506172839,18.456790123456788,0)" xlink:href="#aV"/><use transform="matrix(0.06172839506172839,0,0,0.06172839506172839,30.80246913580247,0)" xlink:href="#bd"/><use transform="matrix(0.06172839506172839,0,0,0.06172839506172839,43.148148148148145,0)" xlink:href="#aT"/></g><path fill="#333" d="M160-131c35 5 61 23 61 61C221 17 115-2 30 0v-248c76 3 177-17 177 60 0 33-19 50-47 57zm-97-11c50-1 110 9 110-42 0-47-63-36-110-37v79zm0 115c55-2 124 14 124-45 0-56-70-42-124-44v89" id="br"/><g id="T"><use transform="matrix(0.06172839506172839,0,0,0.06172839506172839,0,0)" xlink:href="#br"/><use transform="matrix(0.06172839506172839,0,0,0.06172839506172839,14.814814814814813,0)" xlink:href="#aS"/><use transform="matrix(0.06172839506172839,0,0,0.06172839506172839,27.160493827160494,0)" xlink:href="#aM"/><use transform="matrix(0.06172839506172839,0,0,0.06172839506172839,33.333333333333336,0)" xlink:href="#aM"/><use transform="matrix(0.06172839506172839,0,0,0.06172839506172839,39.50617283950618,0)" xlink:href="#aV"/><use transform="matrix(0.06172839506172839,0,0,0.06172839506172839,51.851851851851855,0)" xlink:href="#aY"/></g><path fill="#333" d="M30-248c87 1 191-15 191 75 0 78-77 80-158 76V0H30v-248zm33 125c57 0 124 11 124-50 0-59-68-47-124-48v98" id="bs"/><g id="U"><use transform="matrix(0.06172839506172839,0,0,0.06172839506172839,0,0)" xlink:href="#bs"/><use transform="matrix(0.06172839506172839,0,0,0.06172839506172839,14.814814814814813,0)" xlink:href="#aO"/><use transform="matrix(0.06172839506172839,0,0,0.06172839506172839,22.160493827160494,0)" xlink:href="#aT"/><use transform="matrix(0.06172839506172839,0,0,0.06172839506172839,34.50617283950617,0)" xlink:href="#aZ"/><use transform="matrix(0.06172839506172839,0,0,0.06172839506172839,45.61728395061728,0)" xlink:href="#aZ"/><use transform="matrix(0.06172839506172839,0,0,0.06172839506172839,56.72839506172839,0)" xlink:href="#aT"/><use transform="matrix(0.06172839506172839,0,0,0.06172839506172839,69.07407407407408,0)" xlink:href="#bd"/></g><g id="V"><use transform="matrix(0.06172839506172839,0,0,0.06172839506172839,0,0)" xlink:href="#aR"/><use transform="matrix(0.06172839506172839,0,0,0.06172839506172839,11.11111111111111,0)" xlink:href="#aS"/><use transform="matrix(0.06172839506172839,0,0,0.06172839506172839,23.45679012345679,0)" xlink:href="#aO"/><use transform="matrix(0.06172839506172839,0,0,0.06172839506172839,30.80246913580247,0)" xlink:href="#aO"/><use transform="matrix(0.06172839506172839,0,0,0.06172839506172839,38.148148148148145,0)" xlink:href="#aT"/><use transform="matrix(0.06172839506172839,0,0,0.06172839506172839,50.49382716049382,0)" xlink:href="#aY"/><use transform="matrix(0.06172839506172839,0,0,0.06172839506172839,62.8395061728395,0)" xlink:href="#aM"/></g><g id="W"><use transform="matrix(0.06172839506172839,0,0,0.06172839506172839,0,0)" xlink:href="#aZ"/><use transform="matrix(0.06172839506172839,0,0,0.06172839506172839,11.11111111111111,0)" xlink:href="#aM"/><use transform="matrix(0.06172839506172839,0,0,0.06172839506172839,17.28395061728395,0)" xlink:href="#aN"/><use transform="matrix(0.06172839506172839,0,0,0.06172839506172839,29.629629629629626,0)" xlink:href="#aM"/><use transform="matrix(0.06172839506172839,0,0,0.06172839506172839,35.80246913580247,0)" xlink:href="#aT"/></g><g id="X"><use transform="matrix(0.06172839506172839,0,0,0.06172839506172839,0,0)" xlink:href="#aX"/><use transform="matrix(0.06172839506172839,0,0,0.06172839506172839,4.876543209876543,0)" xlink:href="#aY"/><use transform="matrix(0.06172839506172839,0,0,0.06172839506172839,17.22222222222222,0)" xlink:href="#bd"/><use transform="matrix(0.06172839506172839,0,0,0.06172839506172839,29.5679012345679,0)" xlink:href="#aT"/><use transform="matrix(0.06172839506172839,0,0,0.06172839506172839,41.913580246913575,0)" xlink:href="#bm"/></g><g id="Y"><use transform="matrix(0.06172839506172839,0,0,0.06172839506172839,0,0)" xlink:href="#bh"/><use transform="matrix(0.06172839506172839,0,0,0.06172839506172839,6.172839506172839,0)" xlink:href="#aW"/></g><path fill="#333" d="M18-27v-27l151-64-151-65v-27l175 74v36" id="bt"/><use transform="matrix(0.06172839506172839,0,0,0.06172839506172839,0,0)" xlink:href="#bt" id="Z"/><g id="aa"><use transform="matrix(0.06172839506172839,0,0,0.06172839506172839,0,0)" xlink:href="#aY"/><use transform="matrix(0.06172839506172839,0,0,0.06172839506172839,12.345679012345679,0)" xlink:href="#aS"/><use transform="matrix(0.06172839506172839,0,0,0.06172839506172839,24.691358024691358,0)" xlink:href="#ba"/></g><g id="ab"><use transform="matrix(0.06172839506172839,0,0,0.06172839506172839,0,0)" xlink:href="#aZ"/><use transform="matrix(0.06172839506172839,0,0,0.06172839506172839,11.11111111111111,0)" xlink:href="#aM"/><use transform="matrix(0.06172839506172839,0,0,0.06172839506172839,17.28395061728395,0)" xlink:href="#aN"/><use transform="matrix(0.06172839506172839,0,0,0.06172839506172839,29.629629629629626,0)" xlink:href="#aM"/><use transform="matrix(0.06172839506172839,0,0,0.06172839506172839,35.80246913580247,0)" xlink:href="#aT"/><use transform="matrix(0.06172839506172839,0,0,0.06172839506172839,48.148148148148145,0)" xlink:href="#aZ"/></g><g id="ac"><use transform="matrix(0.06172839506172839,0,0,0.06172839506172839,0,0)" xlink:href="#aP"/><use transform="matrix(0.06172839506172839,0,0,0.06172839506172839,15.987654320987653,0)" xlink:href="#aS"/><use transform="matrix(0.06172839506172839,0,0,0.06172839506172839,28.333333333333332,0)" xlink:href="#aO"/><use transform="matrix(0.06172839506172839,0,0,0.06172839506172839,35.67901234567901,0)" xlink:href="#aO"/><use transform="matrix(0.06172839506172839,0,0,0.06172839506172839,43.02469135802469,0)" xlink:href="#aT"/><use transform="matrix(0.06172839506172839,0,0,0.06172839506172839,55.37037037037037,0)" xlink:href="#aY"/><use transform="matrix(0.06172839506172839,0,0,0.06172839506172839,67.71604938271605,0)" xlink:href="#aM"/></g><path fill="#333" d="M18-150v-26h174v26H18zm0 90v-26h174v26H18" id="bu"/><use transform="matrix(0.06172839506172839,0,0,0.06172839506172839,0,0)" xlink:href="#bu" id="ad"/><path fill="#333" d="M101-251c68 0 85 55 85 127S166 4 100 4C33 4 14-52 14-124c0-73 17-127 87-127zm-1 229c47 0 54-49 54-102s-4-102-53-102c-51 0-55 48-55 102 0 53 5 102 54 102" id="bv"/><use transform="matrix(0.06172839506172839,0,0,0.06172839506172839,0,0)" xlink:href="#bv" id="ae"/><path fill="#333" d="M146-102V0H94v-102L6-248h54l60 105 60-105h54" id="bw"/><path fill="#333" d="M185-48c-13 30-37 53-82 52C43 2 14-33 14-96s30-98 90-98c62 0 83 45 84 108H66c0 31 8 55 39 56 18 0 30-7 34-22zm-45-69c5-46-57-63-70-21-2 6-4 13-4 21h74" id="bx"/><path fill="#333" d="M137-138c1-29-70-34-71-4 15 46 118 7 119 86 1 83-164 76-172 9l43-7c4 19 20 25 44 25 33 8 57-30 24-41C81-84 22-81 20-136c-2-80 154-74 161-7" id="by"/><g id="af"><use transform="matrix(0.04938271604938272,0,0,0.04938271604938272,0,0)" xlink:href="#bw"/><use transform="matrix(0.04938271604938272,0,0,0.04938271604938272,10.864197530864198,0)" xlink:href="#bx"/><use transform="matrix(0.04938271604938272,0,0,0.04938271604938272,20.74074074074074,0)" xlink:href="#by"/></g><path fill="#333" d="M175 0L67-191c6 58 2 128 3 191H24v-248h59L193-55c-6-58-2-129-3-193h46V0h-61" id="bz"/><path fill="#333" d="M110-194c64 0 96 36 96 99 0 64-35 99-97 99-61 0-95-36-95-99 0-62 34-99 96-99zm-1 164c35 0 45-28 45-65 0-40-10-65-43-65-34 0-45 26-45 65 0 36 10 65 43 65" id="bA"/><g id="ag"><use transform="matrix(0.04938271604938272,0,0,0.04938271604938272,0,0)" xlink:href="#bz"/><use transform="matrix(0.04938271604938272,0,0,0.04938271604938272,12.790123456790125,0)" xlink:href="#bA"/></g><g id="ah"><use transform="matrix(0.06172839506172839,0,0,0.06172839506172839,0,0)" xlink:href="#aN"/><use transform="matrix(0.06172839506172839,0,0,0.06172839506172839,12.345679012345679,0)" xlink:href="#aQ"/><use transform="matrix(0.06172839506172839,0,0,0.06172839506172839,17.22222222222222,0)" xlink:href="#aQ"/></g><g id="ai"><use transform="matrix(0.06172839506172839,0,0,0.06172839506172839,0,0)" xlink:href="#bl"/><use transform="matrix(0.06172839506172839,0,0,0.06172839506172839,11.11111111111111,0)" xlink:href="#aN"/><use transform="matrix(0.06172839506172839,0,0,0.06172839506172839,23.45679012345679,0)" xlink:href="#aO"/><use transform="matrix(0.06172839506172839,0,0,0.06172839506172839,30.80246913580247,0)" xlink:href="#aX"/><use transform="matrix(0.06172839506172839,0,0,0.06172839506172839,35.67901234567901,0)" xlink:href="#aN"/><use transform="matrix(0.06172839506172839,0,0,0.06172839506172839,48.02469135802469,0)" xlink:href="#bc"/><use transform="matrix(0.06172839506172839,0,0,0.06172839506172839,60.37037037037037,0)" xlink:href="#aQ"/><use transform="matrix(0.06172839506172839,0,0,0.06172839506172839,65.24691358024691,0)" xlink:href="#aT"/><use transform="matrix(0.06172839506172839,0,0,0.06172839506172839,77.5925925925926,0)" xlink:href="#aZ"/></g><g id="aj"><use transform="matrix(0.06172839506172839,0,0,0.06172839506172839,0,0)" xlink:href="#bc"/><use transform="matrix(0.06172839506172839,0,0,0.06172839506172839,12.345679012345679,0)" xlink:href="#aS"/><use transform="matrix(0.06172839506172839,0,0,0.06172839506172839,24.691358024691358,0)" xlink:href="#aW"/><use transform="matrix(0.06172839506172839,0,0,0.06172839506172839,30.432098765432098,0)" xlink:href="#aW"/><use transform="matrix(0.06172839506172839,0,0,0.06172839506172839,36.60493827160494,0)" xlink:href="#aT"/><use transform="matrix(0.06172839506172839,0,0,0.06172839506172839,48.95061728395061,0)" xlink:href="#aO"/><use transform="matrix(0.06172839506172839,0,0,0.06172839506172839,56.29629629629629,0)" xlink:href="#aZ"/></g><g id="ak"><use transform="matrix(0.06172839506172839,0,0,0.06172839506172839,0,0)" xlink:href="#aM"/><use transform="matrix(0.06172839506172839,0,0,0.06172839506172839,6.172839506172839,0)" xlink:href="#aV"/></g><path fill="#333" d="M9 0v-24l116-142H16v-24h144v24L44-24h123V0H9" id="bB"/><g id="al"><use transform="matrix(0.06172839506172839,0,0,0.06172839506172839,0,0)" xlink:href="#bB"/><use transform="matrix(0.06172839506172839,0,0,0.06172839506172839,11.11111111111111,0)" xlink:href="#aT"/><use transform="matrix(0.06172839506172839,0,0,0.06172839506172839,23.45679012345679,0)" xlink:href="#aO"/><use transform="matrix(0.06172839506172839,0,0,0.06172839506172839,30.80246913580247,0)" xlink:href="#aV"/></g><g id="am"><use transform="matrix(0.06172839506172839,0,0,0.06172839506172839,0,0)" xlink:href="#bh"/><use transform="matrix(0.06172839506172839,0,0,0.06172839506172839,6.172839506172839,0)" xlink:href="#aZ"/></g><use transform="matrix(0.06172839506172839,0,0,0.06172839506172839,0,0)" xlink:href="#bv" id="an"/><path fill="#333" d="M32 76v-337h29V76H32" id="bC"/><g id="ao"><use transform="matrix(0.06172839506172839,0,0,0.06172839506172839,0,0)" xlink:href="#bC"/><use transform="matrix(0.06172839506172839,0,0,0.06172839506172839,5.7407407407407405,0)" xlink:href="#bC"/></g><path fill="#333" d="M27 0v-27h64v-190l-56 39v-29l58-41h29v221h61V0H27" id="bD"/><use transform="matrix(0.06172839506172839,0,0,0.06172839506172839,0,0)" xlink:href="#bD" id="ap"/><path fill="#333" d="M206 0h-36l-40-164L89 0H53L-1-190h32L70-26l43-164h34l41 164 42-164h31" id="bE"/><g id="aq"><use transform="matrix(0.06172839506172839,0,0,0.06172839506172839,0,0)" xlink:href="#bk"/><use transform="matrix(0.06172839506172839,0,0,0.06172839506172839,15.987654320987653,0)" xlink:href="#aO"/><use transform="matrix(0.06172839506172839,0,0,0.06172839506172839,23.333333333333332,0)" xlink:href="#aN"/><use transform="matrix(0.06172839506172839,0,0,0.06172839506172839,35.67901234567901,0)" xlink:href="#bE"/></g><path fill="#333" d="M16-82v-28h88v28H16" id="bF"/><g id="ar"><use transform="matrix(0.06172839506172839,0,0,0.06172839506172839,0,0)" xlink:href="#aM"/><use transform="matrix(0.06172839506172839,0,0,0.06172839506172839,6.172839506172839,0)" xlink:href="#aX"/><use transform="matrix(0.06172839506172839,0,0,0.06172839506172839,11.049382716049383,0)" xlink:href="#ba"/><use transform="matrix(0.06172839506172839,0,0,0.06172839506172839,29.50617283950617,0)" xlink:href="#aT"/><use transform="matrix(0.06172839506172839,0,0,0.06172839506172839,41.85185185185185,0)" xlink:href="#bF"/><use transform="matrix(0.06172839506172839,0,0,0.06172839506172839,49.197530864197525,0)" xlink:href="#bd"/><use transform="matrix(0.06172839506172839,0,0,0.06172839506172839,61.5432098765432,0)" xlink:href="#aV"/><use transform="matrix(0.06172839506172839,0,0,0.06172839506172839,73.88888888888889,0)" xlink:href="#ba"/><use transform="matrix(0.06172839506172839,0,0,0.06172839506172839,92.34567901234567,0)" xlink:href="#aN"/><use transform="matrix(0.06172839506172839,0,0,0.06172839506172839,104.69135802469135,0)" xlink:href="#aX"/><use transform="matrix(0.06172839506172839,0,0,0.06172839506172839,109.5679012345679,0)" xlink:href="#aY"/></g><g id="as"><use transform="matrix(0.06172839506172839,0,0,0.06172839506172839,0,0)" xlink:href="#aN"/><use transform="matrix(0.06172839506172839,0,0,0.06172839506172839,12.345679012345679,0)" xlink:href="#bm"/><use transform="matrix(0.06172839506172839,0,0,0.06172839506172839,23.45679012345679,0)" xlink:href="#aT"/><use transform="matrix(0.06172839506172839,0,0,0.06172839506172839,35.80246913580247,0)" xlink:href="#aZ"/></g><g id="at"><use transform="matrix(0.06172839506172839,0,0,0.06172839506172839,0,0)" xlink:href="#aZ"/><use transform="matrix(0.06172839506172839,0,0,0.06172839506172839,11.11111111111111,0)" xlink:href="#aR"/><use transform="matrix(0.06172839506172839,0,0,0.06172839506172839,22.22222222222222,0)" xlink:href="#aO"/><use transform="matrix(0.06172839506172839,0,0,0.06172839506172839,29.5679012345679,0)" xlink:href="#aT"/><use transform="matrix(0.06172839506172839,0,0,0.06172839506172839,41.913580246913575,0)" xlink:href="#aT"/><use transform="matrix(0.06172839506172839,0,0,0.06172839506172839,54.25925925925925,0)" xlink:href="#aY"/></g><g id="au"><use transform="matrix(0.06172839506172839,0,0,0.06172839506172839,0,0)" xlink:href="#aP"/><use transform="matrix(0.06172839506172839,0,0,0.06172839506172839,15.987654320987653,0)" xlink:href="#aQ"/><use transform="matrix(0.06172839506172839,0,0,0.06172839506172839,20.864197530864196,0)" xlink:href="#aT"/><use transform="matrix(0.06172839506172839,0,0,0.06172839506172839,33.20987654320987,0)" xlink:href="#aN"/><use transform="matrix(0.06172839506172839,0,0,0.06172839506172839,45.55555555555555,0)" xlink:href="#aO"/></g><g id="av"><use transform="matrix(0.06172839506172839,0,0,0.06172839506172839,0,0)" xlink:href="#be"/><use transform="matrix(0.06172839506172839,0,0,0.06172839506172839,12.345679012345679,0)" xlink:href="#aO"/><use transform="matrix(0.06172839506172839,0,0,0.06172839506172839,19.691358024691358,0)" xlink:href="#aN"/><use transform="matrix(0.06172839506172839,0,0,0.06172839506172839,32.03703703703704,0)" xlink:href="#bb"/><use transform="matrix(0.06172839506172839,0,0,0.06172839506172839,44.382716049382715,0)" xlink:href="#aU"/></g><g id="aw"><use transform="matrix(0.06172839506172839,0,0,0.06172839506172839,0,0)" xlink:href="#aX"/><use transform="matrix(0.06172839506172839,0,0,0.06172839506172839,4.876543209876543,0)" xlink:href="#aY"/><use transform="matrix(0.06172839506172839,0,0,0.06172839506172839,17.22222222222222,0)" xlink:href="#bb"/><use transform="matrix(0.06172839506172839,0,0,0.06172839506172839,29.5679012345679,0)" xlink:href="#aS"/><use transform="matrix(0.06172839506172839,0,0,0.06172839506172839,41.913580246913575,0)" xlink:href="#aM"/></g><g id="ax"><use transform="matrix(0.06172839506172839,0,0,0.06172839506172839,0,0)" xlink:href="#bb"/><use transform="matrix(0.06172839506172839,0,0,0.06172839506172839,12.345679012345679,0)" xlink:href="#aV"/><use transform="matrix(0.06172839506172839,0,0,0.06172839506172839,24.691358024691358,0)" xlink:href="#aX"/><use transform="matrix(0.06172839506172839,0,0,0.06172839506172839,29.5679012345679,0)" xlink:href="#aY"/><use transform="matrix(0.06172839506172839,0,0,0.06172839506172839,41.913580246913575,0)" xlink:href="#aM"/><use transform="matrix(0.06172839506172839,0,0,0.06172839506172839,48.08641975308642,0)" xlink:href="#aZ"/></g><g id="ay"><use transform="matrix(0.06172839506172839,0,0,0.06172839506172839,0,0)" xlink:href="#aX"/><use transform="matrix(0.06172839506172839,0,0,0.06172839506172839,4.876543209876543,0)" xlink:href="#aZ"/></g><g id="az"><use transform="matrix(0.06172839506172839,0,0,0.06172839506172839,0,0)" xlink:href="#aZ"/><use transform="matrix(0.06172839506172839,0,0,0.06172839506172839,11.11111111111111,0)" xlink:href="#aM"/><use transform="matrix(0.06172839506172839,0,0,0.06172839506172839,17.28395061728395,0)" xlink:href="#aN"/><use transform="matrix(0.06172839506172839,0,0,0.06172839506172839,29.629629629629626,0)" xlink:href="#aM"/><use transform="matrix(0.06172839506172839,0,0,0.06172839506172839,35.80246913580247,0)" xlink:href="#aT"/></g><g id="aA"><use transform="matrix(0.06172839506172839,0,0,0.06172839506172839,0,0)" xlink:href="#aV"/><use transform="matrix(0.06172839506172839,0,0,0.06172839506172839,12.345679012345679,0)" xlink:href="#aS"/><use transform="matrix(0.06172839506172839,0,0,0.06172839506172839,24.691358024691358,0)" xlink:href="#aM"/><use transform="matrix(0.06172839506172839,0,0,0.06172839506172839,30.864197530864196,0)" xlink:href="#bb"/><use transform="matrix(0.06172839506172839,0,0,0.06172839506172839,43.20987654320987,0)" xlink:href="#aS"/><use transform="matrix(0.06172839506172839,0,0,0.06172839506172839,55.55555555555555,0)" xlink:href="#aM"/></g><path fill="#333" d="M101-251c82-7 93 87 43 132L82-64C71-53 59-42 53-27h129V0H18c2-99 128-94 128-182 0-28-16-43-45-43s-46 15-49 41l-32-3c6-41 34-60 81-64" id="bG"/><use transform="matrix(0.06172839506172839,0,0,0.06172839506172839,0,0)" xlink:href="#bG" id="aB"/><path fill="#333" d="M126-127c33 6 58 20 58 59 0 88-139 92-164 29-3-8-5-16-6-25l32-3c6 27 21 44 54 44 32 0 52-15 52-46 0-38-36-46-79-43v-28c39 1 72-4 72-42 0-27-17-43-46-43-28 0-47 15-49 41l-32-3c6-42 35-63 81-64 48-1 79 21 79 65 0 36-21 52-52 59" id="bH"/><use transform="matrix(0.06172839506172839,0,0,0.06172839506172839,0,0)" xlink:href="#bH" id="aC"/><g id="aD"><use transform="matrix(0.06172839506172839,0,0,0.06172839506172839,0,0)" xlink:href="#aW"/><use transform="matrix(0.06172839506172839,0,0,0.06172839506172839,6.172839506172839,0)" xlink:href="#aO"/><use transform="matrix(0.06172839506172839,0,0,0.06172839506172839,13.518518518518519,0)" xlink:href="#aT"/><use transform="matrix(0.06172839506172839,0,0,0.06172839506172839,25.864197530864196,0)" xlink:href="#bf"/><use transform="matrix(0.06172839506172839,0,0,0.06172839506172839,38.20987654320987,0)" xlink:href="#aS"/><use transform="matrix(0.06172839506172839,0,0,0.06172839506172839,50.55555555555555,0)" xlink:href="#aT"/><use transform="matrix(0.06172839506172839,0,0,0.06172839506172839,62.90123456790123,0)" xlink:href="#aY"/><use transform="matrix(0.06172839506172839,0,0,0.06172839506172839,75.24691358024691,0)" xlink:href="#aR"/><use transform="matrix(0.06172839506172839,0,0,0.06172839506172839,86.35802469135803,0)" xlink:href="#bg"/><use transform="matrix(0.06172839506172839,0,0,0.06172839506172839,97.46913580246914,0)" xlink:href="#bF"/><use transform="matrix(0.06172839506172839,0,0,0.06172839506172839,104.81481481481482,0)" xlink:href="#bd"/><use transform="matrix(0.06172839506172839,0,0,0.06172839506172839,117.16049382716051,0)" xlink:href="#aV"/><use transform="matrix(0.06172839506172839,0,0,0.06172839506172839,129.50617283950618,0)" xlink:href="#ba"/><use transform="matrix(0.06172839506172839,0,0,0.06172839506172839,147.96296296296296,0)" xlink:href="#aN"/><use transform="matrix(0.06172839506172839,0,0,0.06172839506172839,160.30864197530863,0)" xlink:href="#aX"/><use transform="matrix(0.06172839506172839,0,0,0.06172839506172839,165.18518518518516,0)" xlink:href="#aY"/></g><g id="aE"><use transform="matrix(0.06172839506172839,0,0,0.06172839506172839,0,0)" xlink:href="#aN"/><use transform="matrix(0.06172839506172839,0,0,0.06172839506172839,12.345679012345679,0)" xlink:href="#bm"/><use transform="matrix(0.06172839506172839,0,0,0.06172839506172839,23.45679012345679,0)" xlink:href="#aT"/><use transform="matrix(0.06172839506172839,0,0,0.06172839506172839,35.80246913580247,0)" xlink:href="#aZ"/></g><g id="aF"><use transform="matrix(0.06172839506172839,0,0,0.06172839506172839,0,0)" xlink:href="#bs"/><use transform="matrix(0.06172839506172839,0,0,0.06172839506172839,14.814814814814813,0)" xlink:href="#aT"/><use transform="matrix(0.06172839506172839,0,0,0.06172839506172839,27.160493827160494,0)" xlink:href="#aO"/><use transform="matrix(0.06172839506172839,0,0,0.06172839506172839,34.50617283950617,0)" xlink:href="#aW"/><use transform="matrix(0.06172839506172839,0,0,0.06172839506172839,40.67901234567901,0)" xlink:href="#aV"/><use transform="matrix(0.06172839506172839,0,0,0.06172839506172839,53.02469135802469,0)" xlink:href="#aO"/><use transform="matrix(0.06172839506172839,0,0,0.06172839506172839,60.37037037037037,0)" xlink:href="#ba"/></g><g id="aG"><use transform="matrix(0.06172839506172839,0,0,0.06172839506172839,0,0)" xlink:href="#aN"/><use transform="matrix(0.06172839506172839,0,0,0.06172839506172839,12.345679012345679,0)" xlink:href="#aY"/></g><path fill="#333" d="M63-220v92h138v28H63V0H30v-248h175v28H63" id="bI"/><g id="aH"><use transform="matrix(0.06172839506172839,0,0,0.06172839506172839,0,0)" xlink:href="#bI"/><use transform="matrix(0.06172839506172839,0,0,0.06172839506172839,13.518518518518517,0)" xlink:href="#bI"/><use transform="matrix(0.06172839506172839,0,0,0.06172839506172839,27.037037037037035,0)" xlink:href="#bi"/></g><g id="aI"><use transform="matrix(0.06172839506172839,0,0,0.06172839506172839,0,0)" xlink:href="#aZ"/><use transform="matrix(0.06172839506172839,0,0,0.06172839506172839,11.11111111111111,0)" xlink:href="#aN"/><use transform="matrix(0.06172839506172839,0,0,0.06172839506172839,23.45679012345679,0)" xlink:href="#ba"/><use transform="matrix(0.06172839506172839,0,0,0.06172839506172839,41.91358024691358,0)" xlink:href="#bb"/><use transform="matrix(0.06172839506172839,0,0,0.06172839506172839,54.25925925925926,0)" xlink:href="#aQ"/><use transform="matrix(0.06172839506172839,0,0,0.06172839506172839,59.135802469135804,0)" xlink:href="#aT"/></g><g id="aJ"><use transform="matrix(0.06172839506172839,0,0,0.06172839506172839,0,0)" xlink:href="#bd"/><use transform="matrix(0.06172839506172839,0,0,0.06172839506172839,12.345679012345679,0)" xlink:href="#aO"/><use transform="matrix(0.06172839506172839,0,0,0.06172839506172839,19.691358024691358,0)" xlink:href="#aN"/><use transform="matrix(0.06172839506172839,0,0,0.06172839506172839,32.03703703703704,0)" xlink:href="#bE"/></g><g id="aK"><use transform="matrix(0.06172839506172839,0,0,0.06172839506172839,0,0)" xlink:href="#aM"/><use transform="matrix(0.06172839506172839,0,0,0.06172839506172839,6.172839506172839,0)" xlink:href="#aU"/><use transform="matrix(0.06172839506172839,0,0,0.06172839506172839,18.51851851851852,0)" xlink:href="#aT"/><use transform="matrix(0.06172839506172839,0,0,0.06172839506172839,30.864197530864196,0)" xlink:href="#ba"/></g></defs></g></svg>